# MagicaVoxel @ Ephtracy

# group
o 

# material
mtllib gun.mtl
usemtl palette

# normals
vn -1 0 0
vn 1 0 0
vn 0 0 1
vn 0 0 -1
vn 0 -1 0
vn 0 1 0

# texcoords
vt 0.978516 0.5
vt 0.982422 0.5
vt 0.986328 0.5
vt 0.990234 0.5
vt 0.994141 0.5

# verts
v -0.2 0 -0.5
v -0.2 0 -0.7
v -0.2 0.1 -0.4
v -0.2 0.1 -0.5
v -0.2 0.1 -0.7
v -0.2 0.1 -0.8
v -0.2 0.6 0.8
v -0.2 0.6 0.4
v -0.2 0.6 -0.4
v -0.2 0.6 -0.6
v -0.2 0.6 -0.8
v -0.2 0.6 -0.9
v -0.2 0.7 0.4
v -0.2 0.7 0.3
v -0.2 0.7 -0.3
v -0.2 0.7 -0.4
v -0.2 0.7 -0.7
v -0.2 0.7 -0.8
v -0.2 0.7 -0.9
v -0.2 0.8 0.7
v -0.2 0.8 0.6
v -0.2 0.8 0.5
v -0.2 0.8 0.4
v -0.2 0.8 0.3
v -0.2 0.8 -0.2
v -0.2 0.8 -0.8
v -0.2 0.8 -0.9
v -0.2 0.9 -0.3
v -0.2 0.9 -0.6
v -0.2 0.9 -0.7
v -0.2 0.9 -0.8
v -0.2 0.9 -0.9
v -0.2 1 0.8
v -0.2 1 0.7
v -0.2 1 0.6
v -0.2 1 0.5
v -0.2 1 0.4
v -0.2 1 -0.2
v -0.2 1 -0.6
v -0.2 1 -0.7
v -0.2 1.1 -0.6
v -0.2 1.1 -0.7
v -0.0999999 0 -0.4
v -0.0999999 0 -0.5
v -0.0999999 0 -0.7
v -0.0999999 0 -0.8
v -0.0999999 0.1 -0.4
v -0.0999999 0.1 -0.5
v -0.0999999 0.1 -0.7
v -0.0999999 0.1 -0.8
v -0.0999999 0.3 -0.1
v -0.0999999 0.3 -0.4
v -0.0999999 0.4 -0.2
v -0.0999999 0.4 -0.4
v -0.0999999 0.6 -0.1
v -0.0999999 0.6 -0.2
v -0.0999999 0.6 -0.4
v -0.0999999 0.6 -0.6
v -0.0999999 0.7 0.9
v -0.0999999 0.7 0.8
v -0.0999999 0.7 -0.3
v -0.0999999 0.7 -0.4
v -0.0999999 0.8 0.7
v -0.0999999 0.8 0.6
v -0.0999999 0.8 0.5
v -0.0999999 0.8 0.4
v -0.0999999 0.9 0.9
v -0.0999999 0.9 0.8
v -0.0999999 0.9 0.7
v -0.0999999 0.9 0.6
v -0.0999999 0.9 0.5
v -0.0999999 0.9 0.4
v -0.0999999 0.9 -0.3
v -0.0999999 0.9 -0.6
v -0.0999999 0.9 -0.7
v -0.0999999 0.9 -0.8
v -0.0999999 1 -0.7
v -0.0999999 1 -0.8
v 0.1 0 -0.4
v 0.1 0 -0.5
v 0.1 0 -0.7
v 0.1 0 -0.8
v 0.1 0.1 -0.4
v 0.1 0.1 -0.5
v 0.1 0.1 -0.7
v 0.1 0.1 -0.8
v 0.1 0.3 -0.1
v 0.1 0.3 -0.4
v 0.1 0.4 -0.2
v 0.1 0.4 -0.4
v 0.1 0.6 -0.1
v 0.1 0.6 -0.2
v 0.1 0.6 -0.4
v 0.1 0.6 -0.6
v 0.1 0.7 0.9
v 0.1 0.7 0.8
v 0.1 0.7 -0.3
v 0.1 0.7 -0.4
v 0.1 0.8 0.7
v 0.1 0.8 0.6
v 0.1 0.8 0.5
v 0.1 0.8 0.4
v 0.1 0.9 0.9
v 0.1 0.9 0.8
v 0.1 0.9 0.7
v 0.1 0.9 0.6
v 0.1 0.9 0.5
v 0.1 0.9 0.4
v 0.1 0.9 -0.3
v 0.1 0.9 -0.6
v 0.1 0.9 -0.7
v 0.1 0.9 -0.8
v 0.1 1 -0.7
v 0.1 1 -0.8
v 0.2 0 -0.5
v 0.2 0 -0.7
v 0.2 0.1 -0.4
v 0.2 0.1 -0.5
v 0.2 0.1 -0.7
v 0.2 0.1 -0.8
v 0.2 0.6 0.8
v 0.2 0.6 0.4
v 0.2 0.6 -0.4
v 0.2 0.6 -0.6
v 0.2 0.6 -0.8
v 0.2 0.6 -0.9
v 0.2 0.7 0.4
v 0.2 0.7 0.3
v 0.2 0.7 -0.3
v 0.2 0.7 -0.4
v 0.2 0.7 -0.7
v 0.2 0.7 -0.8
v 0.2 0.7 -0.9
v 0.2 0.8 0.7
v 0.2 0.8 0.6
v 0.2 0.8 0.5
v 0.2 0.8 0.4
v 0.2 0.8 0.3
v 0.2 0.8 -0.2
v 0.2 0.8 -0.8
v 0.2 0.8 -0.9
v 0.2 0.9 -0.3
v 0.2 0.9 -0.6
v 0.2 0.9 -0.7
v 0.2 0.9 -0.8
v 0.2 0.9 -0.9
v 0.2 1 0.8
v 0.2 1 0.7
v 0.2 1 0.6
v 0.2 1 0.5
v 0.2 1 0.4
v 0.2 1 -0.2
v 0.2 1 -0.6
v 0.2 1 -0.7
v 0.2 1.1 -0.6
v 0.2 1.1 -0.7
v -0.0999999 0.7 0.9
v -0.0999999 0.9 0.9
v 0.1 0.7 0.9
v 0.1 0.9 0.9
v -0.2 0.6 0.8
v -0.2 1 0.8
v -0.0999999 0.7 0.8
v -0.0999999 0.9 0.8
v 0.1 0.7 0.8
v 0.1 0.9 0.8
v 0.2 0.6 0.8
v 0.2 1 0.8
v -0.2 0.8 0.6
v -0.2 1 0.6
v -0.0999999 0.8 0.6
v -0.0999999 0.9 0.6
v 0.1 0.8 0.6
v 0.1 0.9 0.6
v 0.2 0.8 0.6
v 0.2 1 0.6
v -0.2 0.8 0.4
v -0.2 1 0.4
v -0.0999999 0.8 0.4
v -0.0999999 0.9 0.4
v 0.1 0.8 0.4
v 0.1 0.9 0.4
v 0.2 0.8 0.4
v 0.2 1 0.4
v -0.0999999 0.3 -0.1
v -0.0999999 0.6 -0.1
v 0.1 0.3 -0.1
v 0.1 0.6 -0.1
v -0.2 0.1 -0.4
v -0.2 0.6 -0.4
v -0.0999999 0 -0.4
v -0.0999999 0.1 -0.4
v -0.0999999 0.3 -0.4
v -0.0999999 0.4 -0.4
v -0.0999999 0.6 -0.4
v 0.1 0 -0.4
v 0.1 0.1 -0.4
v 0.1 0.3 -0.4
v 0.1 0.4 -0.4
v 0.1 0.6 -0.4
v 0.2 0.1 -0.4
v 0.2 0.6 -0.4
v -0.2 0 -0.5
v -0.2 0.1 -0.5
v -0.0999999 0 -0.5
v -0.0999999 0.1 -0.5
v 0.1 0 -0.5
v 0.1 0.1 -0.5
v 0.2 0 -0.5
v 0.2 0.1 -0.5
v -0.2 0.6 -0.6
v -0.2 0.9 -0.6
v -0.2 1 -0.6
v -0.2 1.1 -0.6
v -0.0999999 0.6 -0.6
v -0.0999999 0.9 -0.6
v 0.1 0.6 -0.6
v 0.1 0.9 -0.6
v 0.2 0.6 -0.6
v 0.2 0.9 -0.6
v 0.2 1 -0.6
v 0.2 1.1 -0.6
v -0.2 0.8 0.7
v -0.2 1 0.7
v -0.0999999 0.8 0.7
v -0.0999999 0.9 0.7
v 0.1 0.8 0.7
v 0.1 0.9 0.7
v 0.2 0.8 0.7
v 0.2 1 0.7
v -0.2 0.8 0.5
v -0.2 1 0.5
v -0.0999999 0.8 0.5
v -0.0999999 0.9 0.5
v 0.1 0.8 0.5
v 0.1 0.9 0.5
v 0.2 0.8 0.5
v 0.2 1 0.5
v -0.0999999 0.4 -0.2
v -0.0999999 0.6 -0.2
v 0.1 0.4 -0.2
v 0.1 0.6 -0.2
v -0.2 0.7 -0.3
v -0.2 0.9 -0.3
v -0.0999999 0.7 -0.3
v -0.0999999 0.9 -0.3
v 0.1 0.7 -0.3
v 0.1 0.9 -0.3
v 0.2 0.7 -0.3
v 0.2 0.9 -0.3
v -0.2 0.6 -0.4
v -0.2 0.7 -0.4
v -0.0999999 0.6 -0.4
v -0.0999999 0.7 -0.4
v 0.1 0.6 -0.4
v 0.1 0.7 -0.4
v 0.2 0.6 -0.4
v 0.2 0.7 -0.4
v -0.2 0 -0.7
v -0.2 0.1 -0.7
v -0.2 0.9 -0.7
v -0.2 1 -0.7
v -0.2 1.1 -0.7
v -0.0999999 0 -0.7
v -0.0999999 0.1 -0.7
v -0.0999999 0.9 -0.7
v -0.0999999 1 -0.7
v 0.1 0 -0.7
v 0.1 0.1 -0.7
v 0.1 0.9 -0.7
v 0.1 1 -0.7
v 0.2 0 -0.7
v 0.2 0.1 -0.7
v 0.2 0.9 -0.7
v 0.2 1 -0.7
v 0.2 1.1 -0.7
v -0.2 0.1 -0.8
v -0.2 0.6 -0.8
v -0.2 0.7 -0.8
v -0.2 0.8 -0.8
v -0.0999999 0 -0.8
v -0.0999999 0.1 -0.8
v -0.0999999 0.9 -0.8
v -0.0999999 1 -0.8
v 0.1 0 -0.8
v 0.1 0.1 -0.8
v 0.1 0.9 -0.8
v 0.1 1 -0.8
v 0.2 0.1 -0.8
v 0.2 0.6 -0.8
v 0.2 0.7 -0.8
v 0.2 0.8 -0.8
v -0.2 0.6 -0.9
v -0.2 0.7 -0.9
v -0.2 0.8 -0.9
v -0.2 0.9 -0.9
v 0.2 0.6 -0.9
v 0.2 0.7 -0.9
v 0.2 0.8 -0.9
v 0.2 0.9 -0.9
v -0.0999999 0 -0.4
v 0.1 0 -0.4
v -0.2 0 -0.5
v -0.0999999 0 -0.5
v 0.1 0 -0.5
v 0.2 0 -0.5
v -0.2 0 -0.7
v -0.0999999 0 -0.7
v 0.1 0 -0.7
v 0.2 0 -0.7
v -0.0999999 0 -0.8
v 0.1 0 -0.8
v -0.2 0.1 -0.4
v -0.0999999 0.1 -0.4
v 0.1 0.1 -0.4
v 0.2 0.1 -0.4
v -0.2 0.1 -0.5
v -0.0999999 0.1 -0.5
v 0.1 0.1 -0.5
v 0.2 0.1 -0.5
v -0.2 0.1 -0.7
v -0.0999999 0.1 -0.7
v 0.1 0.1 -0.7
v 0.2 0.1 -0.7
v -0.2 0.1 -0.8
v -0.0999999 0.1 -0.8
v 0.1 0.1 -0.8
v 0.2 0.1 -0.8
v -0.0999999 0.3 -0.1
v 0.1 0.3 -0.1
v -0.0999999 0.3 -0.4
v 0.1 0.3 -0.4
v -0.2 0.6 0.8
v 0.2 0.6 0.8
v -0.2 0.6 0.4
v 0.2 0.6 0.4
v -0.0999999 0.6 -0.1
v 0.1 0.6 -0.1
v -0.0999999 0.6 -0.2
v 0.1 0.6 -0.2
v -0.0999999 0.6 -0.3
v 0.1 0.6 -0.3
v -0.2 0.6 -0.4
v -0.0999999 0.6 -0.4
v 0.1 0.6 -0.4
v 0.2 0.6 -0.4
v -0.2 0.6 -0.8
v 0.2 0.6 -0.8
v -0.2 0.6 -0.9
v 0.2 0.6 -0.9
v -0.0999999 0.7 0.9
v 0.1 0.7 0.9
v -0.0999999 0.7 0.8
v 0.1 0.7 0.8
v -0.2 0.8 -0.8
v 0.2 0.8 -0.8
v -0.2 0.8 -0.9
v 0.2 0.8 -0.9
v -0.2 0.9 -0.3
v -0.0999999 0.9 -0.3
v 0.1 0.9 -0.3
v 0.2 0.9 -0.3
v -0.2 0.9 -0.6
v -0.0999999 0.9 -0.6
v 0.1 0.9 -0.6
v 0.2 0.9 -0.6
v -0.0999999 0.4 -0.2
v 0.1 0.4 -0.2
v -0.0999999 0.4 -0.4
v 0.1 0.4 -0.4
v -0.2 0.6 -0.4
v -0.0999999 0.6 -0.4
v 0.1 0.6 -0.4
v 0.2 0.6 -0.4
v -0.2 0.6 -0.6
v -0.0999999 0.6 -0.6
v 0.1 0.6 -0.6
v 0.2 0.6 -0.6
v -0.2 0.7 -0.3
v -0.0999999 0.7 -0.3
v 0.1 0.7 -0.3
v 0.2 0.7 -0.3
v -0.2 0.7 -0.4
v -0.0999999 0.7 -0.4
v 0.1 0.7 -0.4
v 0.2 0.7 -0.4
v -0.2 0.7 -0.8
v 0.2 0.7 -0.8
v -0.2 0.7 -0.9
v 0.2 0.7 -0.9
v -0.2 0.8 0.7
v -0.0999999 0.8 0.7
v 0.1 0.8 0.7
v 0.2 0.8 0.7
v -0.2 0.8 0.6
v -0.0999999 0.8 0.6
v 0.1 0.8 0.6
v 0.2 0.8 0.6
v -0.2 0.8 0.5
v -0.0999999 0.8 0.5
v 0.1 0.8 0.5
v 0.2 0.8 0.5
v -0.2 0.8 0.4
v -0.0999999 0.8 0.4
v 0.1 0.8 0.4
v 0.2 0.8 0.4
v -0.0999999 0.9 0.9
v 0.1 0.9 0.9
v -0.0999999 0.9 0.8
v 0.1 0.9 0.8
v -0.0999999 0.9 0.7
v 0.1 0.9 0.7
v -0.0999999 0.9 0.6
v 0.1 0.9 0.6
v -0.0999999 0.9 0.5
v 0.1 0.9 0.5
v -0.0999999 0.9 0.4
v 0.1 0.9 0.4
v -0.2 0.9 -0.7
v -0.0999999 0.9 -0.7
v 0.1 0.9 -0.7
v 0.2 0.9 -0.7
v -0.2 0.9 -0.8
v -0.0999999 0.9 -0.8
v 0.1 0.9 -0.8
v 0.2 0.9 -0.8
v -0.2 0.9 -0.9
v 0.2 0.9 -0.9
v -0.2 1 0.8
v 0.2 1 0.8
v -0.2 1 0.7
v 0.2 1 0.7
v -0.2 1 0.6
v 0.2 1 0.6
v -0.2 1 0.5
v 0.2 1 0.5
v -0.2 1 0.4
v 0.2 1 0.4
v -0.2 1 -0.2
v 0.2 1 -0.2
v -0.2 1 -0.6
v 0.2 1 -0.6
v -0.0999999 1 -0.7
v 0.1 1 -0.7
v -0.0999999 1 -0.8
v 0.1 1 -0.8
v -0.2 1.1 -0.6
v 0.2 1.1 -0.6
v -0.2 1.1 -0.7
v 0.2 1.1 -0.7

# faces
f 4/5/1 2/5/1 1/5/1
f 5/5/1 2/5/1 4/5/1
f 9/5/1 4/5/1 3/5/1
f 9/5/1 5/5/1 4/5/1
f 9/5/1 6/5/1 5/5/1
f 10/5/1 6/5/1 9/5/1
f 11/5/1 6/5/1 10/5/1
f 13/3/1 8/3/1 7/3/1
f 13/1/1 9/1/1 8/1/1
f 14/1/1 9/1/1 13/1/1
f 15/1/1 9/1/1 14/1/1
f 16/1/1 9/1/1 15/1/1
f 17/1/1 11/1/1 10/1/1
f 18/4/1 12/4/1 11/4/1
f 18/1/1 11/1/1 17/1/1
f 19/4/1 12/4/1 18/4/1
f 20/3/1 13/3/1 7/3/1
f 20/3/1 14/3/1 13/3/1
f 21/3/1 14/3/1 20/3/1
f 22/3/1 14/3/1 21/3/1
f 23/3/1 14/3/1 22/3/1
f 24/1/1 15/1/1 14/1/1
f 24/3/1 14/3/1 23/3/1
f 25/1/1 15/1/1 24/1/1
f 26/2/1 18/2/1 17/2/1
f 28/1/1 15/1/1 25/1/1
f 29/1/1 17/1/1 10/1/1
f 30/2/1 26/2/1 17/2/1
f 30/1/1 17/1/1 29/1/1
f 31/4/1 27/4/1 26/4/1
f 31/2/1 26/2/1 30/2/1
f 32/4/1 27/4/1 31/4/1
f 33/3/1 20/3/1 7/3/1
f 34/3/1 20/3/1 33/3/1
f 35/3/1 22/3/1 21/3/1
f 36/3/1 22/3/1 35/3/1
f 37/3/1 25/3/1 24/3/1
f 37/3/1 24/3/1 23/3/1
f 38/1/1 28/1/1 25/1/1
f 38/3/1 25/3/1 37/3/1
f 38/1/1 30/1/1 29/1/1
f 38/1/1 29/1/1 28/1/1
f 39/1/1 30/1/1 38/1/1
f 40/1/1 30/1/1 39/1/1
f 41/2/1 40/2/1 39/2/1
f 42/2/1 40/2/1 41/2/1
f 47/5/1 44/5/1 43/5/1
f 48/5/1 44/5/1 47/5/1
f 49/5/1 46/5/1 45/5/1
f 50/5/1 46/5/1 49/5/1
f 53/4/1 52/4/1 51/4/1
f 54/4/1 52/4/1 53/4/1
f 55/4/1 53/4/1 51/4/1
f 56/4/1 53/4/1 55/4/1
f 62/3/1 58/3/1 57/3/1
f 67/5/1 60/5/1 59/5/1
f 68/5/1 60/5/1 67/5/1
f 69/4/1 64/4/1 63/4/1
f 70/4/1 64/4/1 69/4/1
f 71/4/1 66/4/1 65/4/1
f 72/4/1 66/4/1 71/4/1
f 73/3/1 62/3/1 61/3/1
f 74/3/1 58/3/1 62/3/1
f 74/3/1 62/3/1 73/3/1
f 77/2/1 76/2/1 75/2/1
f 78/2/1 76/2/1 77/2/1
f 79/5/2 80/5/2 83/5/2
f 83/5/2 80/5/2 84/5/2
f 81/5/2 82/5/2 85/5/2
f 85/5/2 82/5/2 86/5/2
f 87/4/2 88/4/2 89/4/2
f 89/4/2 88/4/2 90/4/2
f 87/4/2 89/4/2 91/4/2
f 91/4/2 89/4/2 92/4/2
f 93/3/2 94/3/2 98/3/2
f 95/5/2 96/5/2 103/5/2
f 103/5/2 96/5/2 104/5/2
f 99/4/2 100/4/2 105/4/2
f 105/4/2 100/4/2 106/4/2
f 101/4/2 102/4/2 107/4/2
f 107/4/2 102/4/2 108/4/2
f 97/3/2 98/3/2 109/3/2
f 98/3/2 94/3/2 110/3/2
f 109/3/2 98/3/2 110/3/2
f 111/2/2 112/2/2 113/2/2
f 113/2/2 112/2/2 114/2/2
f 115/5/2 116/5/2 118/5/2
f 118/5/2 116/5/2 119/5/2
f 117/5/2 118/5/2 123/5/2
f 118/5/2 119/5/2 123/5/2
f 119/5/2 120/5/2 123/5/2
f 123/5/2 120/5/2 124/5/2
f 124/5/2 120/5/2 125/5/2
f 121/3/2 122/3/2 127/3/2
f 122/1/2 123/1/2 127/1/2
f 127/1/2 123/1/2 128/1/2
f 128/1/2 123/1/2 129/1/2
f 129/1/2 123/1/2 130/1/2
f 124/1/2 125/1/2 131/1/2
f 125/4/2 126/4/2 132/4/2
f 131/1/2 125/1/2 132/1/2
f 132/4/2 126/4/2 133/4/2
f 121/3/2 127/3/2 134/3/2
f 127/3/2 128/3/2 134/3/2
f 134/3/2 128/3/2 135/3/2
f 135/3/2 128/3/2 136/3/2
f 136/3/2 128/3/2 137/3/2
f 128/1/2 129/1/2 138/1/2
f 137/3/2 128/3/2 138/3/2
f 138/1/2 129/1/2 139/1/2
f 131/2/2 132/2/2 140/2/2
f 139/1/2 129/1/2 142/1/2
f 124/1/2 131/1/2 143/1/2
f 131/2/2 140/2/2 144/2/2
f 143/1/2 131/1/2 144/1/2
f 140/4/2 141/4/2 145/4/2
f 144/2/2 140/2/2 145/2/2
f 145/4/2 141/4/2 146/4/2
f 121/3/2 134/3/2 147/3/2
f 147/3/2 134/3/2 148/3/2
f 135/3/2 136/3/2 149/3/2
f 149/3/2 136/3/2 150/3/2
f 138/3/2 139/3/2 151/3/2
f 137/3/2 138/3/2 151/3/2
f 139/1/2 142/1/2 152/1/2
f 151/3/2 139/3/2 152/3/2
f 143/1/2 144/1/2 152/1/2
f 142/1/2 143/1/2 152/1/2
f 152/1/2 144/1/2 153/1/2
f 153/1/2 144/1/2 154/1/2
f 153/2/2 154/2/2 155/2/2
f 155/2/2 154/2/2 156/2/2
f 159/5/3 158/5/3 157/5/3
f 160/5/3 158/5/3 159/5/3
f 163/3/3 162/3/3 161/3/3
f 164/3/3 162/3/3 163/3/3
f 165/3/3 163/3/3 161/3/3
f 166/3/3 162/3/3 164/3/3
f 167/3/3 165/3/3 161/3/3
f 167/3/3 166/3/3 165/3/3
f 168/3/3 162/3/3 166/3/3
f 168/3/3 166/3/3 167/3/3
f 171/3/3 170/3/3 169/3/3
f 172/3/3 170/3/3 171/3/3
f 174/3/3 170/3/3 172/3/3
f 175/3/3 174/3/3 173/3/3
f 176/3/3 170/3/3 174/3/3
f 176/3/3 174/3/3 175/3/3
f 179/3/3 178/3/3 177/3/3
f 180/3/3 178/3/3 179/3/3
f 182/3/3 178/3/3 180/3/3
f 183/3/3 182/3/3 181/3/3
f 184/3/3 178/3/3 182/3/3
f 184/3/3 182/3/3 183/3/3
f 187/4/3 186/4/3 185/4/3
f 188/4/3 186/4/3 187/4/3
f 192/5/3 190/5/3 189/5/3
f 193/5/3 190/5/3 192/5/3
f 194/5/3 190/5/3 193/5/3
f 195/5/3 190/5/3 194/5/3
f 196/5/3 192/5/3 191/5/3
f 196/5/3 193/5/3 192/5/3
f 197/5/3 193/5/3 196/5/3
f 198/5/3 193/5/3 197/5/3
f 199/5/3 195/5/3 194/5/3
f 200/5/3 195/5/3 199/5/3
f 201/5/3 198/5/3 197/5/3
f 201/5/3 200/5/3 199/5/3
f 201/5/3 199/5/3 198/5/3
f 202/5/3 200/5/3 201/5/3
f 205/5/3 204/5/3 203/5/3
f 206/5/3 204/5/3 205/5/3
f 209/5/3 208/5/3 207/5/3
f 210/5/3 208/5/3 209/5/3
f 215/1/3 212/1/3 211/1/3
f 216/1/3 212/1/3 215/1/3
f 219/1/3 218/1/3 217/1/3
f 220/1/3 218/1/3 219/1/3
f 221/2/3 214/2/3 213/2/3
f 222/2/3 214/2/3 221/2/3
f 223/3/4 224/3/4 225/3/4
f 225/3/4 224/3/4 226/3/4
f 226/3/4 224/3/4 228/3/4
f 227/3/4 228/3/4 229/3/4
f 228/3/4 224/3/4 230/3/4
f 229/3/4 228/3/4 230/3/4
f 231/3/4 232/3/4 233/3/4
f 233/3/4 232/3/4 234/3/4
f 234/3/4 232/3/4 236/3/4
f 235/3/4 236/3/4 237/3/4
f 236/3/4 232/3/4 238/3/4
f 237/3/4 236/3/4 238/3/4
f 239/4/4 240/4/4 241/4/4
f 241/4/4 240/4/4 242/4/4
f 243/1/4 244/1/4 245/1/4
f 245/1/4 244/1/4 246/1/4
f 247/1/4 248/1/4 249/1/4
f 249/1/4 248/1/4 250/1/4
f 251/1/4 252/1/4 253/1/4
f 253/1/4 252/1/4 254/1/4
f 255/1/4 256/1/4 257/1/4
f 257/1/4 256/1/4 258/1/4
f 259/5/4 260/5/4 264/5/4
f 264/5/4 260/5/4 265/5/4
f 261/1/4 262/1/4 266/1/4
f 262/2/4 263/2/4 267/2/4
f 266/1/4 262/1/4 267/1/4
f 267/2/4 263/2/4 271/2/4
f 268/5/4 269/5/4 272/5/4
f 272/5/4 269/5/4 273/5/4
f 270/1/4 271/1/4 274/1/4
f 271/2/4 263/2/4 275/2/4
f 274/1/4 271/1/4 275/1/4
f 275/2/4 263/2/4 276/2/4
f 277/5/4 278/5/4 282/5/4
f 281/5/4 282/5/4 285/5/4
f 282/5/4 278/5/4 286/5/4
f 285/5/4 282/5/4 286/5/4
f 283/2/4 284/2/4 287/2/4
f 287/2/4 284/2/4 288/2/4
f 286/5/4 278/5/4 289/5/4
f 289/5/4 278/5/4 290/5/4
f 279/2/4 280/2/4 291/2/4
f 291/2/4 280/2/4 292/2/4
f 293/4/4 294/4/4 297/4/4
f 297/4/4 294/4/4 298/4/4
f 295/4/4 296/4/4 299/4/4
f 299/4/4 296/4/4 300/4/4
f 304/5/5 302/5/5 301/5/5
f 305/5/5 302/5/5 304/5/5
f 307/5/5 304/5/5 303/5/5
f 307/5/5 306/5/5 305/5/5
f 307/5/5 305/5/5 304/5/5
f 308/5/5 306/5/5 307/5/5
f 309/5/5 306/5/5 308/5/5
f 310/5/5 306/5/5 309/5/5
f 311/5/5 309/5/5 308/5/5
f 312/5/5 309/5/5 311/5/5
f 317/5/5 314/5/5 313/5/5
f 318/5/5 314/5/5 317/5/5
f 319/5/5 316/5/5 315/5/5
f 320/5/5 316/5/5 319/5/5
f 325/5/5 322/5/5 321/5/5
f 326/5/5 322/5/5 325/5/5
f 327/5/5 324/5/5 323/5/5
f 328/5/5 324/5/5 327/5/5
f 331/4/5 330/4/5 329/4/5
f 332/4/5 330/4/5 331/4/5
f 335/3/5 334/3/5 333/3/5
f 336/3/5 334/3/5 335/3/5
f 337/1/5 336/1/5 335/1/5
f 338/1/5 336/1/5 337/1/5
f 339/1/5 337/1/5 335/1/5
f 340/1/5 336/1/5 338/1/5
f 341/1/5 339/1/5 335/1/5
f 341/3/5 340/3/5 339/3/5
f 342/1/5 336/1/5 340/1/5
f 342/3/5 340/3/5 341/3/5
f 343/1/5 341/1/5 335/1/5
f 344/2/5 342/2/5 341/2/5
f 344/1/5 341/1/5 343/1/5
f 345/1/5 336/1/5 342/1/5
f 345/2/5 342/2/5 344/2/5
f 346/1/5 336/1/5 345/1/5
f 349/4/5 348/4/5 347/4/5
f 350/4/5 348/4/5 349/4/5
f 353/5/5 352/5/5 351/5/5
f 354/5/5 352/5/5 353/5/5
f 357/4/5 356/4/5 355/4/5
f 358/4/5 356/4/5 357/4/5
f 363/1/5 360/1/5 359/1/5
f 364/1/5 360/1/5 363/1/5
f 365/1/5 362/1/5 361/1/5
f 366/1/5 362/1/5 365/1/5
f 367/4/6 368/4/6 369/4/6
f 369/4/6 368/4/6 370/4/6
f 371/5/6 372/5/6 375/5/6
f 375/5/6 372/5/6 376/5/6
f 373/5/6 374/5/6 377/5/6
f 377/5/6 374/5/6 378/5/6
f 379/1/6 380/1/6 383/1/6
f 383/1/6 380/1/6 384/1/6
f 381/1/6 382/1/6 385/1/6
f 385/1/6 382/1/6 386/1/6
f 387/4/6 388/4/6 389/4/6
f 389/4/6 388/4/6 390/4/6
f 391/3/6 392/3/6 395/3/6
f 395/3/6 392/3/6 396/3/6
f 393/3/6 394/3/6 397/3/6
f 397/3/6 394/3/6 398/3/6
f 399/3/6 400/3/6 403/3/6
f 403/3/6 400/3/6 404/3/6
f 401/3/6 402/3/6 405/3/6
f 405/3/6 402/3/6 406/3/6
f 407/5/6 408/5/6 409/5/6
f 409/5/6 408/5/6 410/5/6
f 411/4/6 412/4/6 413/4/6
f 413/4/6 412/4/6 414/4/6
f 415/4/6 416/4/6 417/4/6
f 417/4/6 416/4/6 418/4/6
f 419/2/6 420/2/6 423/2/6
f 423/2/6 420/2/6 424/2/6
f 421/2/6 422/2/6 425/2/6
f 425/2/6 422/2/6 426/2/6
f 423/4/6 424/4/6 427/4/6
f 424/4/6 425/4/6 427/4/6
f 425/4/6 426/4/6 427/4/6
f 427/4/6 426/4/6 428/4/6
f 429/3/6 430/3/6 431/3/6
f 431/3/6 430/3/6 432/3/6
f 433/3/6 434/3/6 435/3/6
f 435/3/6 434/3/6 436/3/6
f 437/3/6 438/3/6 439/3/6
f 439/3/6 438/3/6 440/3/6
f 439/1/6 440/1/6 441/1/6
f 441/1/6 440/1/6 442/1/6
f 443/2/6 444/2/6 445/2/6
f 445/2/6 444/2/6 446/2/6
f 447/2/6 448/2/6 449/2/6
f 449/2/6 448/2/6 450/2/6
