# MagicaVoxel @ Ephtracy

# group
o 

# material
mtllib HG.mtl
usemtl palette

# normals
vn -1 0 0
vn 1 0 0
vn 0 0 1
vn 0 0 -1
vn 0 -1 0
vn 0 1 0

# texcoords
vt 0.951172 0.5
vt 0.982422 0.5
vt 0.986328 0.5
vt 0.990234 0.5
vt 0.994141 0.5

# verts
v -1.7 2 0.2
v -1.7 2 -0.1
v -1.7 2.1 0.1
v -1.7 2.1 0
v -1.7 2.2 0.1
v -1.7 2.2 0
v -1.7 2.3 0.2
v -1.7 2.3 -0.1
v -1 1.9 0.3
v -1 1.9 -0.2
v -1 2 0.2
v -1 2 -0.1
v -1 2.3 0.2
v -1 2.3 -0.1
v -1 2.4 0.3
v -1 2.4 -0.2
v -0.9 0.9 0.2
v -0.9 0.9 -0.1
v -0.9 1.8 0.4
v -0.9 1.8 0.2
v -0.9 1.8 -0.1
v -0.9 1.8 -0.3
v -0.9 1.9 0.3
v -0.9 1.9 -0.2
v -0.9 2.4 0.3
v -0.9 2.4 -0.2
v -0.9 2.5 0.4
v -0.9 2.5 -0.3
v -0.8 2.5 0.2
v -0.8 2.5 -0.1
v -0.8 2.7 0.2
v -0.8 2.7 -0.1
v -0.7 1 0.2
v -0.7 1 0.1
v -0.7 1 0
v -0.7 1 -0.1
v -0.7 1.8 0.2
v -0.7 1.8 0.1
v -0.7 1.8 0
v -0.7 1.8 -0.1
v -0.7 2.3 0.4
v -0.7 2.3 0.3
v -0.7 2.3 -0.2
v -0.7 2.3 -0.3
v -0.7 2.4 0.4
v -0.7 2.4 0.3
v -0.7 2.4 -0.2
v -0.7 2.4 -0.3
v -0.5 1 0.2
v -0.5 1 0.1
v -0.5 1 0
v -0.5 1 -0.1
v -0.5 1.8 0.2
v -0.5 1.8 0.1
v -0.5 1.8 0
v -0.5 1.8 -0.1
v -0.5 2.3 0.4
v -0.5 2.3 0.3
v -0.5 2.3 -0.2
v -0.5 2.3 -0.3
v -0.5 2.4 0.4
v -0.5 2.4 0.3
v -0.5 2.4 -0.2
v -0.5 2.4 -0.3
v -0.0999999 2.3 0.4
v -0.0999999 2.3 0.3
v -0.0999999 2.3 -0.2
v -0.0999999 2.3 -0.3
v -0.0999999 2.4 0.4
v -0.0999999 2.4 0.3
v -0.0999999 2.4 -0.2
v -0.0999999 2.4 -0.3
v 0.1 2.2 0.4
v 0.1 2.2 0.3
v 0.1 2.2 -0.2
v 0.1 2.2 -0.3
v 0.1 2.4 0.4
v 0.1 2.4 0.3
v 0.1 2.4 -0.2
v 0.1 2.4 -0.3
v 0.3 1.5 0.1
v 0.3 1.5 0
v 0.3 1.8 0.1
v 0.3 1.8 0
v 0.6 1.2 0.2
v 0.6 1.2 -0.1
v 0.6 1.5 0.1
v 0.6 1.5 0
v 0.6 1.6 0.1
v 0.6 1.6 0
v 0.6 1.8 0.2
v 0.6 1.8 -0.1
v 0.8 1.3 0.2
v 0.8 1.3 0.1
v 0.8 1.3 0
v 0.8 1.3 -0.1
v 0.8 1.8 0.2
v 0.8 1.8 0.1
v 0.8 1.8 0
v 0.8 1.8 -0.1
v 1 1.3 0.2
v 1 1.3 0.1
v 1 1.3 0
v 1 1.3 -0.1
v 1 1.8 0.2
v 1 1.8 0.1
v 1 1.8 0
v 1 1.8 -0.1
v -0.8 1 0.2
v -0.8 1 0.1
v -0.8 1 0
v -0.8 1 -0.1
v -0.8 1.8 0.2
v -0.8 1.8 0.1
v -0.8 1.8 0
v -0.8 1.8 -0.1
v -0.8 2.2 0.4
v -0.8 2.2 0.3
v -0.8 2.2 -0.2
v -0.8 2.2 -0.3
v -0.8 2.4 0.4
v -0.8 2.4 0.3
v -0.8 2.4 -0.2
v -0.8 2.4 -0.3
v -0.6 1 0.2
v -0.6 1 0.1
v -0.6 1 0
v -0.6 1 -0.1
v -0.6 1.8 0.2
v -0.6 1.8 0.1
v -0.6 1.8 0
v -0.6 1.8 -0.1
v -0.6 2.3 0.4
v -0.6 2.3 0.3
v -0.6 2.3 -0.2
v -0.6 2.3 -0.3
v -0.6 2.4 0.4
v -0.6 2.4 0.3
v -0.6 2.4 -0.2
v -0.6 2.4 -0.3
v -0.6 2.5 0.2
v -0.6 2.5 -0.1
v -0.6 2.7 0.2
v -0.6 2.7 -0.1
v -0.4 0.9 0.2
v -0.4 0.9 -0.1
v -0.4 1.8 0.2
v -0.4 1.8 -0.1
v -0.2 2.3 0.4
v -0.2 2.3 0.3
v -0.2 2.3 -0.2
v -0.2 2.3 -0.3
v -0.2 2.4 0.4
v -0.2 2.4 0.3
v -0.2 2.4 -0.2
v -0.2 2.4 -0.3
v 1.19209e-07 2.3 0.4
v 1.19209e-07 2.3 0.3
v 1.19209e-07 2.3 -0.2
v 1.19209e-07 2.3 -0.3
v 1.19209e-07 2.4 0.4
v 1.19209e-07 2.4 0.3
v 1.19209e-07 2.4 -0.2
v 1.19209e-07 2.4 -0.3
v 0.4 1.6 0.1
v 0.4 1.6 0
v 0.4 1.8 0.1
v 0.4 1.8 0
v 0.7 1.3 0.2
v 0.7 1.3 0.1
v 0.7 1.3 0
v 0.7 1.3 -0.1
v 0.7 1.8 0.2
v 0.7 1.8 0.1
v 0.7 1.8 0
v 0.7 1.8 -0.1
v 0.9 1.3 0.2
v 0.9 1.3 0.1
v 0.9 1.3 0
v 0.9 1.3 -0.1
v 0.9 1.8 0.2
v 0.9 1.8 0.1
v 0.9 1.8 0
v 0.9 1.8 -0.1
v 1.1 1.2 0.2
v 1.1 1.2 -0.1
v 1.1 1.8 0.4
v 1.1 1.8 0.2
v 1.1 1.8 -0.1
v 1.1 1.8 -0.3
v 1.1 2.5 0.4
v 1.1 2.5 -0.3
v -0.9 1.8 0.4
v -0.9 2.5 0.4
v -0.8 2.2 0.4
v -0.8 2.4 0.4
v -0.7 2.3 0.4
v -0.7 2.4 0.4
v -0.6 2.3 0.4
v -0.6 2.4 0.4
v -0.5 2.3 0.4
v -0.5 2.4 0.4
v -0.2 2.3 0.4
v -0.2 2.4 0.4
v -0.0999999 2.3 0.4
v -0.0999999 2.4 0.4
v 1.19209e-07 2.3 0.4
v 1.19209e-07 2.4 0.4
v 0.1 2.2 0.4
v 0.1 2.4 0.4
v 0.2 1.9 0.4
v 0.2 2.1 0.4
v 0.3 2.2 0.4
v 0.3 2.3 0.4
v 0.3 2.4 0.4
v 0.3 2.5 0.4
v 0.4 1.9 0.4
v 0.4 2.1 0.4
v 1 1.8 0.4
v 1 2.2 0.4
v 1 2.3 0.4
v 1 2.4 0.4
v 1 2.5 0.4
v 1.1 1.8 0.4
v 1.1 2.5 0.4
v -1 1.9 0.3
v -1 2.4 0.3
v -0.9 1.9 0.3
v -0.9 2.4 0.3
v -0.8 2.2 0.3
v -0.8 2.4 0.3
v -0.7 2.3 0.3
v -0.7 2.4 0.3
v -0.6 2.3 0.3
v -0.6 2.4 0.3
v -0.5 2.3 0.3
v -0.5 2.4 0.3
v -0.2 2.3 0.3
v -0.2 2.4 0.3
v -0.0999999 2.3 0.3
v -0.0999999 2.4 0.3
v 1.19209e-07 2.3 0.3
v 1.19209e-07 2.4 0.3
v 0.1 2.2 0.3
v 0.1 2.4 0.3
v -1.7 2 0.2
v -1.7 2.3 0.2
v -1 2 0.2
v -1 2.3 0.2
v -0.9 0.9 0.2
v -0.9 1.8 0.2
v -0.8 1 0.2
v -0.8 1.8 0.2
v -0.8 2.5 0.2
v -0.8 2.7 0.2
v -0.7 1 0.2
v -0.7 1.8 0.2
v -0.6 1 0.2
v -0.6 1.8 0.2
v -0.6 2.5 0.2
v -0.6 2.7 0.2
v -0.5 1 0.2
v -0.5 1.8 0.2
v -0.4 0.9 0.2
v -0.4 1.8 0.2
v 0.6 1.2 0.2
v 0.6 1.8 0.2
v 0.7 1.3 0.2
v 0.7 1.8 0.2
v 0.8 1.3 0.2
v 0.8 1.8 0.2
v 0.9 1.3 0.2
v 0.9 1.8 0.2
v 1 1.3 0.2
v 1 1.8 0.2
v 1.1 1.2 0.2
v 1.1 1.8 0.2
v -0.8 1 0.1
v -0.8 1.8 0.1
v -0.7 1 0.1
v -0.7 1.8 0.1
v -0.6 1 0.1
v -0.6 1.8 0.1
v -0.5 1 0.1
v -0.5 1.8 0.1
v 0.3 1.5 0.1
v 0.3 1.8 0.1
v 0.4 1.6 0.1
v 0.4 1.8 0.1
v 0.6 1.5 0.1
v 0.6 1.6 0.1
v 0.7 1.3 0.1
v 0.7 1.8 0.1
v 0.8 1.3 0.1
v 0.8 1.8 0.1
v 0.9 1.3 0.1
v 0.9 1.8 0.1
v 1 1.3 0.1
v 1 1.8 0.1
v -0.8 1 0
v -0.8 1.8 0
v -0.7 1 0
v -0.7 1.8 0
v -0.6 1 0
v -0.6 1.8 0
v -0.5 1 0
v -0.5 1.8 0
v 0.3 1.5 0
v 0.3 1.8 0
v 0.4 1.6 0
v 0.4 1.8 0
v 0.6 1.5 0
v 0.6 1.6 0
v 0.7 1.3 0
v 0.7 1.8 0
v 0.8 1.3 0
v 0.8 1.8 0
v 0.9 1.3 0
v 0.9 1.8 0
v 1 1.3 0
v 1 1.8 0
v -1.7 2 -0.1
v -1.7 2.3 -0.1
v -1 2 -0.1
v -1 2.3 -0.1
v -0.9 0.9 -0.1
v -0.9 1.8 -0.1
v -0.8 1 -0.1
v -0.8 1.8 -0.1
v -0.8 2.5 -0.1
v -0.8 2.7 -0.1
v -0.7 1 -0.1
v -0.7 1.8 -0.1
v -0.6 1 -0.1
v -0.6 1.8 -0.1
v -0.6 2.5 -0.1
v -0.6 2.7 -0.1
v -0.5 1 -0.1
v -0.5 1.8 -0.1
v -0.4 0.9 -0.1
v -0.4 1.8 -0.1
v 0.6 1.2 -0.1
v 0.6 1.8 -0.1
v 0.7 1.3 -0.1
v 0.7 1.8 -0.1
v 0.8 1.3 -0.1
v 0.8 1.8 -0.1
v 0.9 1.3 -0.1
v 0.9 1.8 -0.1
v 1 1.3 -0.1
v 1 1.8 -0.1
v 1.1 1.2 -0.1
v 1.1 1.8 -0.1
v -1 1.9 -0.2
v -1 2.4 -0.2
v -0.9 1.9 -0.2
v -0.9 2.4 -0.2
v -0.8 2.2 -0.2
v -0.8 2.4 -0.2
v -0.7 2.3 -0.2
v -0.7 2.4 -0.2
v -0.6 2.3 -0.2
v -0.6 2.4 -0.2
v -0.5 2.3 -0.2
v -0.5 2.4 -0.2
v -0.2 2.3 -0.2
v -0.2 2.4 -0.2
v -0.0999999 2.3 -0.2
v -0.0999999 2.4 -0.2
v 1.19209e-07 2.3 -0.2
v 1.19209e-07 2.4 -0.2
v 0.1 2.2 -0.2
v 0.1 2.4 -0.2
v -0.9 1.8 -0.3
v -0.9 2.5 -0.3
v -0.8 2.2 -0.3
v -0.8 2.4 -0.3
v -0.7 2.3 -0.3
v -0.7 2.4 -0.3
v -0.6 2.3 -0.3
v -0.6 2.4 -0.3
v -0.5 2.3 -0.3
v -0.5 2.4 -0.3
v -0.2 2.3 -0.3
v -0.2 2.4 -0.3
v -0.0999999 2.3 -0.3
v -0.0999999 2.4 -0.3
v 1.19209e-07 2.3 -0.3
v 1.19209e-07 2.4 -0.3
v 0.1 2.2 -0.3
v 0.1 2.4 -0.3
v 0.2 1.9 -0.3
v 0.2 2.1 -0.3
v 0.3 2.2 -0.3
v 0.3 2.3 -0.3
v 0.3 2.4 -0.3
v 0.3 2.5 -0.3
v 0.4 1.9 -0.3
v 0.4 2.1 -0.3
v 1 1.8 -0.3
v 1 2.2 -0.3
v 1 2.3 -0.3
v 1 2.4 -0.3
v 1 2.5 -0.3
v 1.1 1.8 -0.3
v 1.1 2.5 -0.3
v -0.9 0.9 0.2
v -0.4 0.9 0.2
v -0.9 0.9 -0.1
v -0.4 0.9 -0.1
v 0.6 1.2 0.2
v 1.1 1.2 0.2
v 0.6 1.2 -0.1
v 1.1 1.2 -0.1
v 0.3 1.5 0.1
v 0.6 1.5 0.1
v 0.3 1.5 0
v 0.6 1.5 0
v -0.9 1.8 0.4
v 1 1.8 0.4
v 1.1 1.8 0.4
v -0.9 1.8 0.2
v -0.8 1.8 0.2
v -0.7 1.8 0.2
v -0.6 1.8 0.2
v -0.5 1.8 0.2
v -0.4 1.8 0.2
v 0.6 1.8 0.2
v 0.7 1.8 0.2
v 0.8 1.8 0.2
v 0.9 1.8 0.2
v 1 1.8 0.2
v 1.1 1.8 0.2
v -0.8 1.8 0.1
v -0.7 1.8 0.1
v -0.6 1.8 0.1
v -0.5 1.8 0.1
v 0.3 1.8 0.1
v 0.4 1.8 0.1
v 0.7 1.8 0.1
v 0.8 1.8 0.1
v 0.9 1.8 0.1
v 1 1.8 0.1
v -0.8 1.8 0
v -0.7 1.8 0
v -0.6 1.8 0
v -0.5 1.8 0
v 0.3 1.8 0
v 0.4 1.8 0
v 0.7 1.8 0
v 0.8 1.8 0
v 0.9 1.8 0
v 1 1.8 0
v -0.9 1.8 -0.1
v -0.8 1.8 -0.1
v -0.7 1.8 -0.1
v -0.6 1.8 -0.1
v -0.5 1.8 -0.1
v -0.4 1.8 -0.1
v 0.6 1.8 -0.1
v 0.7 1.8 -0.1
v 0.8 1.8 -0.1
v 0.9 1.8 -0.1
v 1 1.8 -0.1
v 1.1 1.8 -0.1
v -0.9 1.8 -0.3
v 1 1.8 -0.3
v 1.1 1.8 -0.3
v -1 1.9 0.3
v -0.9 1.9 0.3
v -1 1.9 -0.2
v -0.9 1.9 -0.2
v -1.7 2 0.2
v -1 2 0.2
v -1.7 2 -0.1
v -1 2 -0.1
v -0.7 2.3 0.4
v -0.6 2.3 0.4
v -0.5 2.3 0.4
v -0.2 2.3 0.4
v -0.0999999 2.3 0.4
v 1.19209e-07 2.3 0.4
v -0.7 2.3 0.3
v -0.6 2.3 0.3
v -0.5 2.3 0.3
v -0.2 2.3 0.3
v -0.0999999 2.3 0.3
v 1.19209e-07 2.3 0.3
v -0.7 2.3 -0.2
v -0.6 2.3 -0.2
v -0.5 2.3 -0.2
v -0.2 2.3 -0.2
v -0.0999999 2.3 -0.2
v 1.19209e-07 2.3 -0.2
v -0.7 2.3 -0.3
v -0.6 2.3 -0.3
v -0.5 2.3 -0.3
v -0.2 2.3 -0.3
v -0.0999999 2.3 -0.3
v 1.19209e-07 2.3 -0.3
v -0.8 2.4 0.4
v -0.7 2.4 0.4
v -0.6 2.4 0.4
v -0.5 2.4 0.4
v -0.2 2.4 0.4
v -0.0999999 2.4 0.4
v 1.19209e-07 2.4 0.4
v 0.1 2.4 0.4
v -0.8 2.4 0.3
v -0.7 2.4 0.3
v -0.6 2.4 0.3
v -0.5 2.4 0.3
v -0.2 2.4 0.3
v -0.0999999 2.4 0.3
v 1.19209e-07 2.4 0.3
v 0.1 2.4 0.3
v -0.8 2.4 -0.2
v -0.7 2.4 -0.2
v -0.6 2.4 -0.2
v -0.5 2.4 -0.2
v -0.2 2.4 -0.2
v -0.0999999 2.4 -0.2
v 1.19209e-07 2.4 -0.2
v 0.1 2.4 -0.2
v -0.8 2.4 -0.3
v -0.7 2.4 -0.3
v -0.6 2.4 -0.3
v -0.5 2.4 -0.3
v -0.2 2.4 -0.3
v -0.0999999 2.4 -0.3
v 1.19209e-07 2.4 -0.3
v 0.1 2.4 -0.3
v -0.8 1 0.2
v -0.7 1 0.2
v -0.6 1 0.2
v -0.5 1 0.2
v -0.8 1 0.1
v -0.7 1 0.1
v -0.6 1 0.1
v -0.5 1 0.1
v -0.8 1 0
v -0.7 1 0
v -0.6 1 0
v -0.5 1 0
v -0.8 1 -0.1
v -0.7 1 -0.1
v -0.6 1 -0.1
v -0.5 1 -0.1
v 0.7 1.3 0.2
v 0.8 1.3 0.2
v 0.9 1.3 0.2
v 1 1.3 0.2
v 0.7 1.3 0.1
v 0.8 1.3 0.1
v 0.9 1.3 0.1
v 1 1.3 0.1
v 0.7 1.3 0
v 0.8 1.3 0
v 0.9 1.3 0
v 1 1.3 0
v 0.7 1.3 -0.1
v 0.8 1.3 -0.1
v 0.9 1.3 -0.1
v 1 1.3 -0.1
v 0.4 1.6 0.1
v 0.6 1.6 0.1
v 0.4 1.6 0
v 0.6 1.6 0
v -0.8 2.2 0.4
v 0.1 2.2 0.4
v -0.8 2.2 0.3
v 0.1 2.2 0.3
v -0.8 2.2 -0.2
v 0.1 2.2 -0.2
v -0.8 2.2 -0.3
v 0.1 2.2 -0.3
v -1.7 2.3 0.2
v -1 2.3 0.2
v -1.7 2.3 -0.1
v -1 2.3 -0.1
v -1 2.4 0.3
v -0.9 2.4 0.3
v -1 2.4 -0.2
v -0.9 2.4 -0.2
v -0.9 2.5 0.4
v 0.3 2.5 0.4
v 1 2.5 0.4
v 1.1 2.5 0.4
v 0.3 2.5 0.3
v 1 2.5 0.3
v -0.8 2.5 0.2
v -0.6 2.5 0.2
v 1 2.5 0.2
v -0.8 2.5 -0.1
v -0.6 2.5 -0.1
v 1 2.5 -0.1
v 0.3 2.5 -0.2
v 1 2.5 -0.2
v -0.9 2.5 -0.3
v 0.3 2.5 -0.3
v 1 2.5 -0.3
v 1.1 2.5 -0.3
v -0.8 2.7 0.2
v -0.6 2.7 0.2
v -0.8 2.7 -0.1
v -0.6 2.7 -0.1

# faces
f 3/2/1 2/2/1 1/2/1
f 4/2/1 2/2/1 3/2/1
f 5/2/1 3/2/1 1/2/1
f 5/4/1 4/4/1 3/4/1
f 6/2/1 2/2/1 4/2/1
f 6/4/1 4/4/1 5/4/1
f 7/2/1 5/2/1 1/2/1
f 7/2/1 6/2/1 5/2/1
f 8/2/1 2/2/1 6/2/1
f 8/2/1 6/2/1 7/2/1
f 11/3/1 10/3/1 9/3/1
f 12/3/1 10/3/1 11/3/1
f 13/3/1 11/3/1 9/3/1
f 14/3/1 10/3/1 12/3/1
f 15/3/1 13/3/1 9/3/1
f 15/3/1 14/3/1 13/3/1
f 16/3/1 10/3/1 14/3/1
f 16/3/1 14/3/1 15/3/1
f 20/4/1 18/4/1 17/4/1
f 21/4/1 18/4/1 20/4/1
f 23/3/1 20/3/1 19/3/1
f 23/3/1 22/3/1 21/3/1
f 23/3/1 21/3/1 20/3/1
f 24/3/1 22/3/1 23/3/1
f 25/3/1 23/3/1 19/3/1
f 26/3/1 22/3/1 24/3/1
f 27/3/1 25/3/1 19/3/1
f 27/3/1 26/3/1 25/3/1
f 28/3/1 22/3/1 26/3/1
f 28/3/1 26/3/1 27/3/1
f 31/3/1 30/3/1 29/3/1
f 32/3/1 30/3/1 31/3/1
f 37/4/1 34/4/1 33/4/1
f 38/4/1 34/4/1 37/4/1
f 39/4/1 36/4/1 35/4/1
f 40/4/1 36/4/1 39/4/1
f 45/2/1 42/2/1 41/2/1
f 46/2/1 42/2/1 45/2/1
f 47/2/1 44/2/1 43/2/1
f 48/2/1 44/2/1 47/2/1
f 53/4/1 50/4/1 49/4/1
f 54/4/1 50/4/1 53/4/1
f 55/4/1 52/4/1 51/4/1
f 56/4/1 52/4/1 55/4/1
f 61/2/1 58/2/1 57/2/1
f 62/2/1 58/2/1 61/2/1
f 63/2/1 60/2/1 59/2/1
f 64/2/1 60/2/1 63/2/1
f 69/2/1 66/2/1 65/2/1
f 70/2/1 66/2/1 69/2/1
f 71/2/1 68/2/1 67/2/1
f 72/2/1 68/2/1 71/2/1
f 77/3/1 74/3/1 73/3/1
f 78/3/1 74/3/1 77/3/1
f 79/3/1 76/3/1 75/3/1
f 80/3/1 76/3/1 79/3/1
f 83/4/1 82/4/1 81/4/1
f 84/4/1 82/4/1 83/4/1
f 87/4/1 86/4/1 85/4/1
f 88/4/1 86/4/1 87/4/1
f 89/4/1 87/4/1 85/4/1
f 90/4/1 86/4/1 88/4/1
f 91/4/1 89/4/1 85/4/1
f 91/4/1 90/4/1 89/4/1
f 92/4/1 86/4/1 90/4/1
f 92/4/1 90/4/1 91/4/1
f 97/4/1 94/4/1 93/4/1
f 98/4/1 94/4/1 97/4/1
f 99/4/1 96/4/1 95/4/1
f 100/4/1 96/4/1 99/4/1
f 105/4/1 102/4/1 101/4/1
f 106/4/1 102/4/1 105/4/1
f 107/4/1 104/4/1 103/4/1
f 108/4/1 104/4/1 107/4/1
f 109/4/2 110/4/2 113/4/2
f 113/4/2 110/4/2 114/4/2
f 111/4/2 112/4/2 115/4/2
f 115/4/2 112/4/2 116/4/2
f 117/3/2 118/3/2 121/3/2
f 121/3/2 118/3/2 122/3/2
f 119/3/2 120/3/2 123/3/2
f 123/3/2 120/3/2 124/3/2
f 125/4/2 126/4/2 129/4/2
f 129/4/2 126/4/2 130/4/2
f 127/4/2 128/4/2 131/4/2
f 131/4/2 128/4/2 132/4/2
f 133/2/2 134/2/2 137/2/2
f 137/2/2 134/2/2 138/2/2
f 135/2/2 136/2/2 139/2/2
f 139/2/2 136/2/2 140/2/2
f 141/3/2 142/3/2 143/3/2
f 143/3/2 142/3/2 144/3/2
f 145/4/2 146/4/2 147/4/2
f 147/4/2 146/4/2 148/4/2
f 149/2/2 150/2/2 153/2/2
f 153/2/2 150/2/2 154/2/2
f 151/2/2 152/2/2 155/2/2
f 155/2/2 152/2/2 156/2/2
f 157/2/2 158/2/2 161/2/2
f 161/2/2 158/2/2 162/2/2
f 159/2/2 160/2/2 163/2/2
f 163/2/2 160/2/2 164/2/2
f 165/4/2 166/4/2 167/4/2
f 167/4/2 166/4/2 168/4/2
f 169/4/2 170/4/2 173/4/2
f 173/4/2 170/4/2 174/4/2
f 171/4/2 172/4/2 175/4/2
f 175/4/2 172/4/2 176/4/2
f 177/4/2 178/4/2 181/4/2
f 181/4/2 178/4/2 182/4/2
f 179/4/2 180/4/2 183/4/2
f 183/4/2 180/4/2 184/4/2
f 185/4/2 186/4/2 188/4/2
f 188/4/2 186/4/2 189/4/2
f 187/5/2 188/5/2 191/5/2
f 189/5/2 190/5/2 191/5/2
f 188/5/2 189/5/2 191/5/2
f 191/5/2 190/5/2 192/5/2
f 195/3/3 194/3/3 193/3/3
f 196/3/3 194/3/3 195/3/3
f 198/3/3 194/3/3 196/3/3
f 199/2/3 198/2/3 197/2/3
f 200/3/3 194/3/3 198/3/3
f 200/2/3 198/2/3 199/2/3
f 202/3/3 194/3/3 200/3/3
f 203/2/3 202/2/3 201/2/3
f 204/3/3 194/3/3 202/3/3
f 204/2/3 202/2/3 203/2/3
f 206/3/3 194/3/3 204/3/3
f 207/2/3 206/2/3 205/2/3
f 208/3/3 194/3/3 206/3/3
f 208/2/3 206/2/3 207/2/3
f 209/3/3 195/3/3 193/3/3
f 210/3/3 194/3/3 208/3/3
f 211/3/3 209/3/3 193/3/3
f 211/3/3 210/3/3 209/3/3
f 212/3/3 210/3/3 211/3/3
f 213/3/3 210/3/3 212/3/3
f 214/3/3 210/3/3 213/3/3
f 215/3/3 194/3/3 210/3/3
f 215/3/3 210/3/3 214/3/3
f 216/3/3 194/3/3 215/3/3
f 217/3/3 211/3/3 193/3/3
f 217/4/3 212/4/3 211/4/3
f 218/3/3 213/3/3 212/3/3
f 218/4/3 212/4/3 217/4/3
f 219/3/3 217/3/3 193/3/3
f 219/3/3 218/3/3 217/3/3
f 220/4/3 214/4/3 213/4/3
f 220/3/3 218/3/3 219/3/3
f 220/3/3 213/3/3 218/3/3
f 221/3/3 215/3/3 214/3/3
f 221/4/3 214/4/3 220/4/3
f 222/4/3 216/4/3 215/4/3
f 222/3/3 215/3/3 221/3/3
f 223/4/3 216/4/3 222/4/3
f 224/5/3 221/5/3 220/5/3
f 224/5/3 220/5/3 219/5/3
f 224/5/3 223/5/3 222/5/3
f 224/5/3 222/5/3 221/5/3
f 225/5/3 223/5/3 224/5/3
f 228/3/3 227/3/3 226/3/3
f 229/3/3 227/3/3 228/3/3
f 232/1/3 231/1/3 230/1/3
f 233/1/3 231/1/3 232/1/3
f 234/1/3 232/1/3 230/1/3
f 236/1/3 234/1/3 230/1/3
f 236/1/3 235/1/3 234/1/3
f 237/1/3 235/1/3 236/1/3
f 238/1/3 236/1/3 230/1/3
f 240/1/3 238/1/3 230/1/3
f 240/1/3 239/1/3 238/1/3
f 241/1/3 239/1/3 240/1/3
f 242/1/3 240/1/3 230/1/3
f 244/1/3 242/1/3 230/1/3
f 244/1/3 243/1/3 242/1/3
f 245/1/3 243/1/3 244/1/3
f 248/2/3 247/2/3 246/2/3
f 249/2/3 247/2/3 248/2/3
f 252/4/3 251/4/3 250/4/3
f 253/4/3 251/4/3 252/4/3
f 256/4/3 252/4/3 250/4/3
f 258/4/3 256/4/3 250/4/3
f 258/4/3 257/4/3 256/4/3
f 259/4/3 257/4/3 258/4/3
f 260/3/3 255/3/3 254/3/3
f 261/3/3 255/3/3 260/3/3
f 262/4/3 258/4/3 250/4/3
f 264/4/3 262/4/3 250/4/3
f 264/4/3 263/4/3 262/4/3
f 265/4/3 263/4/3 264/4/3
f 268/4/3 267/4/3 266/4/3
f 269/4/3 267/4/3 268/4/3
f 270/4/3 268/4/3 266/4/3
f 272/4/3 270/4/3 266/4/3
f 272/4/3 271/4/3 270/4/3
f 273/4/3 271/4/3 272/4/3
f 274/4/3 272/4/3 266/4/3
f 276/4/3 274/4/3 266/4/3
f 276/4/3 275/4/3 274/4/3
f 277/4/3 275/4/3 276/4/3
f 280/3/3 279/3/3 278/3/3
f 281/3/3 279/3/3 280/3/3
f 284/3/3 283/3/3 282/3/3
f 285/3/3 283/3/3 284/3/3
f 288/4/3 287/4/3 286/4/3
f 289/4/3 287/4/3 288/4/3
f 290/4/3 288/4/3 286/4/3
f 291/4/3 288/4/3 290/4/3
f 294/4/3 293/4/3 292/4/3
f 295/4/3 293/4/3 294/4/3
f 298/4/3 297/4/3 296/4/3
f 299/4/3 297/4/3 298/4/3
f 300/3/4 301/3/4 302/3/4
f 302/3/4 301/3/4 303/3/4
f 304/3/4 305/3/4 306/3/4
f 306/3/4 305/3/4 307/3/4
f 308/4/4 309/4/4 310/4/4
f 310/4/4 309/4/4 311/4/4
f 308/4/4 310/4/4 312/4/4
f 312/4/4 310/4/4 313/4/4
f 314/4/4 315/4/4 316/4/4
f 316/4/4 315/4/4 317/4/4
f 318/4/4 319/4/4 320/4/4
f 320/4/4 319/4/4 321/4/4
f 322/2/4 323/2/4 324/2/4
f 324/2/4 323/2/4 325/2/4
f 326/4/4 327/4/4 328/4/4
f 328/4/4 327/4/4 329/4/4
f 326/4/4 328/4/4 332/4/4
f 326/4/4 332/4/4 334/4/4
f 332/4/4 333/4/4 334/4/4
f 334/4/4 333/4/4 335/4/4
f 330/3/4 331/3/4 336/3/4
f 336/3/4 331/3/4 337/3/4
f 326/4/4 334/4/4 338/4/4
f 326/4/4 338/4/4 340/4/4
f 338/4/4 339/4/4 340/4/4
f 340/4/4 339/4/4 341/4/4
f 342/4/4 343/4/4 344/4/4
f 344/4/4 343/4/4 345/4/4
f 342/4/4 344/4/4 346/4/4
f 342/4/4 346/4/4 348/4/4
f 346/4/4 347/4/4 348/4/4
f 348/4/4 347/4/4 349/4/4
f 342/4/4 348/4/4 350/4/4
f 342/4/4 350/4/4 352/4/4
f 350/4/4 351/4/4 352/4/4
f 352/4/4 351/4/4 353/4/4
f 354/3/4 355/3/4 356/3/4
f 356/3/4 355/3/4 357/3/4
f 358/1/4 359/1/4 360/1/4
f 360/1/4 359/1/4 361/1/4
f 358/1/4 360/1/4 362/1/4
f 358/1/4 362/1/4 364/1/4
f 362/1/4 363/1/4 364/1/4
f 364/1/4 363/1/4 365/1/4
f 358/1/4 364/1/4 366/1/4
f 358/1/4 366/1/4 368/1/4
f 366/1/4 367/1/4 368/1/4
f 368/1/4 367/1/4 369/1/4
f 358/1/4 368/1/4 370/1/4
f 358/1/4 370/1/4 372/1/4
f 370/1/4 371/1/4 372/1/4
f 372/1/4 371/1/4 373/1/4
f 374/3/4 375/3/4 376/3/4
f 376/3/4 375/3/4 377/3/4
f 377/3/4 375/3/4 379/3/4
f 378/2/4 379/2/4 380/2/4
f 379/3/4 375/3/4 381/3/4
f 380/2/4 379/2/4 381/2/4
f 381/3/4 375/3/4 383/3/4
f 382/2/4 383/2/4 384/2/4
f 383/3/4 375/3/4 385/3/4
f 384/2/4 383/2/4 385/2/4
f 385/3/4 375/3/4 387/3/4
f 386/2/4 387/2/4 388/2/4
f 387/3/4 375/3/4 389/3/4
f 388/2/4 387/2/4 389/2/4
f 374/3/4 376/3/4 390/3/4
f 389/3/4 375/3/4 391/3/4
f 374/3/4 390/3/4 392/3/4
f 390/3/4 391/3/4 392/3/4
f 392/3/4 391/3/4 393/3/4
f 393/3/4 391/3/4 394/3/4
f 394/3/4 391/3/4 395/3/4
f 391/3/4 375/3/4 396/3/4
f 395/3/4 391/3/4 396/3/4
f 396/3/4 375/3/4 397/3/4
f 374/3/4 392/3/4 398/3/4
f 392/4/4 393/4/4 398/4/4
f 393/3/4 394/3/4 399/3/4
f 398/4/4 393/4/4 399/4/4
f 374/3/4 398/3/4 400/3/4
f 398/3/4 399/3/4 400/3/4
f 394/4/4 395/4/4 401/4/4
f 400/3/4 399/3/4 401/3/4
f 399/3/4 394/3/4 401/3/4
f 395/3/4 396/3/4 402/3/4
f 401/4/4 395/4/4 402/4/4
f 396/4/4 397/4/4 403/4/4
f 402/3/4 396/3/4 403/3/4
f 403/4/4 397/4/4 404/4/4
f 401/5/4 402/5/4 405/5/4
f 400/5/4 401/5/4 405/5/4
f 403/5/4 404/5/4 405/5/4
f 402/5/4 403/5/4 405/5/4
f 405/5/4 404/5/4 406/5/4
f 409/4/5 408/4/5 407/4/5
f 410/4/5 408/4/5 409/4/5
f 413/4/5 412/4/5 411/4/5
f 414/4/5 412/4/5 413/4/5
f 417/4/5 416/4/5 415/4/5
f 418/4/5 416/4/5 417/4/5
f 422/3/5 420/3/5 419/3/5
f 423/3/5 420/3/5 422/3/5
f 424/3/5 420/3/5 423/3/5
f 425/3/5 420/3/5 424/3/5
f 426/3/5 420/3/5 425/3/5
f 427/3/5 420/3/5 426/3/5
f 428/3/5 420/3/5 427/3/5
f 429/3/5 420/3/5 428/3/5
f 430/3/5 420/3/5 429/3/5
f 431/3/5 420/3/5 430/3/5
f 432/5/5 421/5/5 420/5/5
f 432/3/5 420/3/5 431/3/5
f 433/5/5 421/5/5 432/5/5
f 434/3/5 424/3/5 423/3/5
f 435/3/5 424/3/5 434/3/5
f 436/3/5 426/3/5 425/3/5
f 437/3/5 426/3/5 436/3/5
f 438/3/5 428/3/5 427/3/5
f 439/3/5 428/3/5 438/3/5
f 440/3/5 430/3/5 429/3/5
f 441/3/5 430/3/5 440/3/5
f 442/3/5 432/3/5 431/3/5
f 443/3/5 432/3/5 442/3/5
f 448/3/5 438/3/5 427/3/5
f 449/3/5 428/3/5 439/3/5
f 455/3/5 445/3/5 444/3/5
f 456/3/5 445/3/5 455/3/5
f 457/3/5 447/3/5 446/3/5
f 458/3/5 447/3/5 457/3/5
f 459/3/5 448/3/5 427/3/5
f 459/3/5 449/3/5 448/3/5
f 460/3/5 428/3/5 449/3/5
f 460/3/5 449/3/5 459/3/5
f 461/3/5 451/3/5 450/3/5
f 462/3/5 451/3/5 461/3/5
f 463/3/5 453/3/5 452/3/5
f 464/3/5 453/3/5 463/3/5
f 466/3/5 464/3/5 463/3/5
f 466/3/5 458/3/5 457/3/5
f 466/3/5 463/3/5 462/3/5
f 466/3/5 456/3/5 455/3/5
f 466/3/5 461/3/5 460/3/5
f 466/3/5 462/3/5 461/3/5
f 466/3/5 459/3/5 458/3/5
f 466/3/5 457/3/5 456/3/5
f 466/3/5 455/3/5 454/3/5
f 466/3/5 460/3/5 459/3/5
f 467/5/5 465/5/5 464/5/5
f 467/3/5 464/3/5 466/3/5
f 468/5/5 465/5/5 467/5/5
f 471/3/5 470/3/5 469/3/5
f 472/3/5 470/3/5 471/3/5
f 475/2/5 474/2/5 473/2/5
f 476/2/5 474/2/5 475/2/5
f 483/2/5 478/2/5 477/2/5
f 484/2/5 478/2/5 483/2/5
f 485/2/5 480/2/5 479/2/5
f 486/2/5 480/2/5 485/2/5
f 487/2/5 482/2/5 481/2/5
f 488/2/5 482/2/5 487/2/5
f 495/2/5 490/2/5 489/2/5
f 496/2/5 490/2/5 495/2/5
f 497/2/5 492/2/5 491/2/5
f 498/2/5 492/2/5 497/2/5
f 499/2/5 494/2/5 493/2/5
f 500/2/5 494/2/5 499/2/5
f 509/3/5 502/3/5 501/3/5
f 510/3/5 502/3/5 509/3/5
f 511/3/5 504/3/5 503/3/5
f 512/3/5 504/3/5 511/3/5
f 513/3/5 506/3/5 505/3/5
f 514/3/5 506/3/5 513/3/5
f 515/3/5 508/3/5 507/3/5
f 516/3/5 508/3/5 515/3/5
f 525/3/5 518/3/5 517/3/5
f 526/3/5 518/3/5 525/3/5
f 527/3/5 520/3/5 519/3/5
f 528/3/5 520/3/5 527/3/5
f 529/3/5 522/3/5 521/3/5
f 530/3/5 522/3/5 529/3/5
f 531/3/5 524/3/5 523/3/5
f 532/3/5 524/3/5 531/3/5
f 533/4/6 534/4/6 537/4/6
f 537/4/6 534/4/6 538/4/6
f 535/4/6 536/4/6 539/4/6
f 539/4/6 536/4/6 540/4/6
f 541/4/6 542/4/6 545/4/6
f 545/4/6 542/4/6 546/4/6
f 543/4/6 544/4/6 547/4/6
f 547/4/6 544/4/6 548/4/6
f 549/4/6 550/4/6 553/4/6
f 553/4/6 550/4/6 554/4/6
f 551/4/6 552/4/6 555/4/6
f 555/4/6 552/4/6 556/4/6
f 557/4/6 558/4/6 561/4/6
f 561/4/6 558/4/6 562/4/6
f 559/4/6 560/4/6 563/4/6
f 563/4/6 560/4/6 564/4/6
f 565/4/6 566/4/6 567/4/6
f 567/4/6 566/4/6 568/4/6
f 569/3/6 570/3/6 571/3/6
f 571/3/6 570/3/6 572/3/6
f 573/3/6 574/3/6 575/3/6
f 575/3/6 574/3/6 576/3/6
f 577/2/6 578/2/6 579/2/6
f 579/2/6 578/2/6 580/2/6
f 581/3/6 582/3/6 583/3/6
f 583/3/6 582/3/6 584/3/6
f 585/3/6 586/3/6 589/3/6
f 586/4/6 587/4/6 589/4/6
f 587/5/6 588/5/6 590/5/6
f 589/4/6 587/4/6 590/4/6
f 585/3/6 589/3/6 591/3/6
f 589/3/6 590/3/6 591/3/6
f 591/3/6 590/3/6 592/3/6
f 590/5/6 588/5/6 593/5/6
f 592/3/6 590/3/6 593/3/6
f 585/3/6 591/3/6 594/3/6
f 592/4/6 593/4/6 595/4/6
f 593/5/6 588/5/6 596/5/6
f 595/4/6 593/4/6 596/4/6
f 594/3/6 595/3/6 597/3/6
f 595/3/6 596/3/6 597/3/6
f 596/5/6 588/5/6 598/5/6
f 597/3/6 596/3/6 598/3/6
f 594/3/6 597/3/6 599/3/6
f 585/3/6 594/3/6 599/3/6
f 597/4/6 598/4/6 600/4/6
f 599/3/6 597/3/6 600/3/6
f 598/5/6 588/5/6 601/5/6
f 600/4/6 598/4/6 601/4/6
f 601/5/6 588/5/6 602/5/6
f 603/3/6 604/3/6 605/3/6
f 605/3/6 604/3/6 606/3/6
