# MagicaVoxel @ Ephtracy

# group
o 

# material
mtllib Body_Ori.mtl
usemtl palette

# normals
vn -1 0 0
vn 1 0 0
vn 0 0 1
vn 0 0 -1
vn 0 -1 0
vn 0 1 0

# texcoords
vt 0.958984 0.5
vt 0.982422 0.5
vt 0.994141 0.5

# verts
v -0.5 1.7 0.8
v -0.5 1.7 -0.0999999
v -0.5 2.5 0.8
v -0.5 2.5 -0.0999999
v -0.4 0.6 0.7
v -0.4 0.6 1.19209e-007
v -0.4 1.5 0.7
v -0.4 1.5 1.19209e-007
v -0.4 1.6 0.8
v -0.4 1.6 -0.0999999
v -0.4 1.7 0.9
v -0.4 1.7 0.8
v -0.4 1.7 -0.0999999
v -0.4 1.7 -0.2
v -0.4 2.5 0.9
v -0.4 2.5 0.8
v -0.4 2.5 -0.0999999
v -0.4 2.5 -0.2
v -0.4 2.6 0.8
v -0.4 2.6 -0.0999999
v -0.3 0 0.9
v -0.3 0 0.5
v -0.3 0 0.2
v -0.3 0 -0.2
v -0.3 0.3 0.9
v -0.3 0.3 0.5
v -0.3 0.3 0.2
v -0.3 0.3 -0.2
v -0.3 0.4 0.9
v -0.3 0.4 0.5
v -0.3 0.4 0.2
v -0.3 0.4 -0.2
v -0.3 0.5 0.7
v -0.3 0.5 1.19209e-007
v -0.3 0.6 0.8
v -0.3 0.6 0.7
v -0.3 0.6 1.19209e-007
v -0.3 0.6 -0.0999999
v -0.3 1.5 0.8
v -0.3 1.5 0.7
v -0.3 1.5 1.19209e-007
v -0.3 1.5 -0.0999999
v -0.2 0.8 1.3
v -0.2 0.8 0.9
v -0.2 0.8 -0.2
v -0.2 0.8 -0.6
v -0.2 1.2 1.3
v -0.2 1.2 1.2
v -0.2 1.2 0.9
v -0.2 1.2 -0.2
v -0.2 1.2 -0.5
v -0.2 1.2 -0.6
v -0.2 1.3 1.2
v -0.2 1.3 0.9
v -0.2 1.3 -0.2
v -0.2 1.3 -0.5
v -0.1 1.3 1.1
v -0.1 1.3 0.9
v -0.1 1.3 -0.2
v -0.1 1.3 -0.4
v -0.1 1.4 1.1
v -0.1 1.4 0.9
v -0.1 1.4 -0.2
v -0.1 1.4 -0.4
v 0.1 1.3 1.1
v 0.1 1.3 0.9
v 0.1 1.3 -0.2
v 0.1 1.3 -0.4
v 0.1 1.4 1.1
v 0.1 1.4 0.9
v 0.1 1.4 -0.2
v 0.1 1.4 -0.4
v 0.2 0.3 0.9
v 0.2 0.3 0.5
v 0.2 0.3 0.2
v 0.2 0.3 -0.2
v 0.2 0.4 0.9
v 0.2 0.4 0.5
v 0.2 0.4 0.2
v 0.2 0.4 -0.2
v 0.2 0.8 1.3
v 0.2 0.8 1.2
v 0.2 0.8 -0.5
v 0.2 0.8 -0.6
v 0.2 1.2 1.3
v 0.2 1.2 1.2
v 0.2 1.2 0.9
v 0.2 1.2 -0.2
v 0.2 1.2 -0.5
v 0.2 1.2 -0.6
v 0.2 1.3 1.2
v 0.2 1.3 0.9
v 0.2 1.3 -0.2
v 0.2 1.3 -0.5
v 0.3 0.8 1.2
v 0.3 0.8 0.9
v 0.3 0.8 -0.2
v 0.3 0.8 -0.5
v 0.3 1.2 1.2
v 0.3 1.2 0.9
v 0.3 1.2 -0.2
v 0.3 1.2 -0.5
v 0.4 0.2 0.9
v 0.4 0.2 0.5
v 0.4 0.2 0.2
v 0.4 0.2 -0.2
v 0.4 0.3 0.9
v 0.4 0.3 0.5
v 0.4 0.3 0.2
v 0.4 0.3 -0.2
v 0.4 0.5 0.7
v 0.4 0.5 1.19209e-007
v 0.4 0.6 0.8
v 0.4 0.6 0.7
v 0.4 0.6 1.19209e-007
v 0.4 0.6 -0.0999999
v 0.4 1.5 0.8
v 0.4 1.5 0.7
v 0.4 1.5 1.19209e-007
v 0.4 1.5 -0.0999999
v 0.5 0 0.9
v 0.5 0 0.5
v 0.5 0 0.2
v 0.5 0 -0.2
v 0.5 0.2 0.9
v 0.5 0.2 0.5
v 0.5 0.2 0.2
v 0.5 0.2 -0.2
v 0.5 0.6 0.7
v 0.5 0.6 1.19209e-007
v 0.5 1.5 0.7
v 0.5 1.5 1.19209e-007
v 0.5 1.6 0.8
v 0.5 1.6 -0.0999999
v 0.5 1.7 0.9
v 0.5 1.7 0.8
v 0.5 1.7 -0.0999999
v 0.5 1.7 -0.2
v 0.5 2.5 0.9
v 0.5 2.5 0.8
v 0.5 2.5 -0.0999999
v 0.5 2.5 -0.2
v 0.5 2.6 0.8
v 0.5 2.6 -0.0999999
v 0.6 1.7 0.8
v 0.6 1.7 -0.0999999
v 0.6 1.9 0.6
v 0.6 1.9 0.5
v 0.6 1.9 0.2
v 0.6 1.9 0.1
v 0.6 2.2 0.6
v 0.6 2.2 0.5
v 0.6 2.2 0.2
v 0.6 2.2 0.1
v 0.6 2.5 0.8
v 0.6 2.5 -0.0999999
v -0.2 0.8 1.3
v -0.2 1.2 1.3
v 0.2 0.8 1.3
v 0.2 1.2 1.3
v -0.2 1.2 1.2
v -0.2 1.3 1.2
v 0.2 0.8 1.2
v 0.2 1.2 1.2
v 0.2 1.3 1.2
v 0.3 0.8 1.2
v 0.3 1.2 1.2
v -0.1 1.3 1.1
v -0.1 1.4 1.1
v 0.1 1.3 1.1
v 0.1 1.4 1.1
v -0.4 1.7 0.9
v -0.4 2.5 0.9
v -0.3 0 0.9
v -0.3 0.3 0.9
v -0.3 0.4 0.9
v 0.2 0.3 0.9
v 0.2 0.4 0.9
v 0.4 0.2 0.9
v 0.4 0.3 0.9
v 0.5 0 0.9
v 0.5 0.2 0.9
v 0.5 1.7 0.9
v 0.5 2.5 0.9
v -0.5 1.7 0.8
v -0.5 2.5 0.8
v -0.4 1.6 0.8
v -0.4 1.7 0.8
v -0.4 2.5 0.8
v -0.4 2.6 0.8
v -0.3 0.6 0.8
v -0.3 1.5 0.8
v 0.4 0.6 0.8
v 0.4 1.5 0.8
v 0.5 1.6 0.8
v 0.5 1.7 0.8
v 0.5 2.5 0.8
v 0.5 2.6 0.8
v 0.6 1.7 0.8
v 0.6 2.5 0.8
v -0.4 0.6 0.7
v -0.4 1.5 0.7
v -0.3 0.5 0.7
v -0.3 0.6 0.7
v -0.3 1.5 0.7
v 0.4 0.5 0.7
v 0.4 0.6 0.7
v 0.4 1.5 0.7
v 0.5 0.6 0.7
v 0.5 1.5 0.7
v -0.3 0 0.2
v -0.3 0.3 0.2
v -0.3 0.4 0.2
v 0.2 0.3 0.2
v 0.2 0.4 0.2
v 0.4 0.2 0.2
v 0.4 0.3 0.2
v 0.5 0 0.2
v 0.5 0.2 0.2
v -0.2 0.8 -0.2
v -0.2 1.2 -0.2
v -0.2 1.3 -0.2
v -0.1 1.3 -0.2
v -0.1 1.4 -0.2
v 0.1 1.3 -0.2
v 0.1 1.4 -0.2
v 0.2 1.2 -0.2
v 0.2 1.3 -0.2
v 0.3 0.8 -0.2
v 0.3 1.2 -0.2
v -0.2 0.8 0.9
v -0.2 1.2 0.9
v -0.2 1.3 0.9
v -0.1 1.3 0.9
v -0.1 1.4 0.9
v 0.1 1.3 0.9
v 0.1 1.4 0.9
v 0.2 1.2 0.9
v 0.2 1.3 0.9
v 0.3 0.8 0.9
v 0.3 1.2 0.9
v -0.3 0 0.5
v -0.3 0.3 0.5
v -0.3 0.4 0.5
v 0.2 0.3 0.5
v 0.2 0.4 0.5
v 0.4 0.2 0.5
v 0.4 0.3 0.5
v 0.5 0 0.5
v 0.5 0.2 0.5
v -0.4 0.6 1.19209e-007
v -0.4 1.5 1.19209e-007
v -0.3 0.5 1.19209e-007
v -0.3 0.6 1.19209e-007
v -0.3 1.5 1.19209e-007
v 0.4 0.5 1.19209e-007
v 0.4 0.6 1.19209e-007
v 0.4 1.5 1.19209e-007
v 0.5 0.6 1.19209e-007
v 0.5 1.5 1.19209e-007
v -0.5 1.7 -0.0999999
v -0.5 2.5 -0.0999999
v -0.4 1.6 -0.0999999
v -0.4 1.7 -0.0999999
v -0.4 2.5 -0.0999999
v -0.4 2.6 -0.0999999
v -0.3 0.6 -0.0999999
v -0.3 1.5 -0.0999999
v 0.4 0.6 -0.0999999
v 0.4 1.5 -0.0999999
v 0.5 1.6 -0.0999999
v 0.5 1.7 -0.0999999
v 0.5 2.5 -0.0999999
v 0.5 2.6 -0.0999999
v 0.6 1.7 -0.0999999
v 0.6 2.5 -0.0999999
v -0.4 1.7 -0.2
v -0.4 2.5 -0.2
v -0.3 0 -0.2
v -0.3 0.3 -0.2
v -0.3 0.4 -0.2
v 0.2 0.3 -0.2
v 0.2 0.4 -0.2
v 0.4 0.2 -0.2
v 0.4 0.3 -0.2
v 0.5 0 -0.2
v 0.5 0.2 -0.2
v 0.5 1.7 -0.2
v 0.5 2.5 -0.2
v -0.1 1.3 -0.4
v -0.1 1.4 -0.4
v 0.1 1.3 -0.4
v 0.1 1.4 -0.4
v -0.2 1.2 -0.5
v -0.2 1.3 -0.5
v 0.2 0.8 -0.5
v 0.2 1.2 -0.5
v 0.2 1.3 -0.5
v 0.3 0.8 -0.5
v 0.3 1.2 -0.5
v -0.2 0.8 -0.6
v -0.2 1.2 -0.6
v 0.2 0.8 -0.6
v 0.2 1.2 -0.6
v -0.3 0 0.9
v 0.5 0 0.9
v -0.3 0 0.5
v 0.5 0 0.5
v -0.3 0 0.2
v 0.5 0 0.2
v -0.3 0 -0.2
v 0.5 0 -0.2
v -0.3 0.5 0.7
v 0.4 0.5 0.7
v -0.3 0.5 1.19209e-007
v 0.4 0.5 1.19209e-007
v -0.3 0.6 0.8
v 0.4 0.6 0.8
v -0.4 0.6 0.7
v -0.3 0.6 0.7
v 0.4 0.6 0.7
v 0.5 0.6 0.7
v -0.4 0.6 1.19209e-007
v -0.3 0.6 1.19209e-007
v 0.4 0.6 1.19209e-007
v 0.5 0.6 1.19209e-007
v -0.3 0.6 -0.0999999
v 0.4 0.6 -0.0999999
v -0.2 0.8 1.3
v 0.2 0.8 1.3
v 0.2 0.8 1.2
v 0.3 0.8 1.2
v -0.2 0.8 0.9
v 0.3 0.8 0.9
v -0.2 0.8 -0.2
v 0.3 0.8 -0.2
v 0.2 0.8 -0.5
v 0.3 0.8 -0.5
v -0.2 0.8 -0.6
v 0.2 0.8 -0.6
v -0.4 1.6 0.8
v 0.5 1.6 0.8
v -0.4 1.6 -0.0999999
v 0.5 1.6 -0.0999999
v -0.4 1.7 0.9
v 0.5 1.7 0.9
v -0.5 1.7 0.8
v -0.4 1.7 0.8
v 0.5 1.7 0.8
v 0.6 1.7 0.8
v -0.5 1.7 -0.0999999
v -0.4 1.7 -0.0999999
v 0.5 1.7 -0.0999999
v 0.6 1.7 -0.0999999
v -0.4 1.7 -0.2
v 0.5 1.7 -0.2
v 0.4 0.2 0.9
v 0.5 0.2 0.9
v 0.4 0.2 0.5
v 0.5 0.2 0.5
v 0.4 0.2 0.2
v 0.5 0.2 0.2
v 0.4 0.2 -0.2
v 0.5 0.2 -0.2
v 0.2 0.3 0.9
v 0.4 0.3 0.9
v 0.2 0.3 0.5
v 0.4 0.3 0.5
v 0.2 0.3 0.2
v 0.4 0.3 0.2
v 0.2 0.3 -0.2
v 0.4 0.3 -0.2
v -0.3 0.4 0.9
v 0.2 0.4 0.9
v -0.3 0.4 0.5
v 0.2 0.4 0.5
v -0.3 0.4 0.2
v 0.2 0.4 0.2
v -0.3 0.4 -0.2
v 0.2 0.4 -0.2
v -0.2 1.2 1.3
v 0.2 1.2 1.3
v -0.2 1.2 1.2
v 0.2 1.2 1.2
v 0.3 1.2 1.2
v 0.2 1.2 0.9
v 0.3 1.2 0.9
v 0.2 1.2 -0.2
v 0.3 1.2 -0.2
v -0.2 1.2 -0.5
v 0.2 1.2 -0.5
v 0.3 1.2 -0.5
v -0.2 1.2 -0.6
v 0.2 1.2 -0.6
v -0.2 1.3 1.2
v 0.2 1.3 1.2
v -0.1 1.3 1.1
v 0.1 1.3 1.1
v -0.2 1.3 0.9
v -0.1 1.3 0.9
v 0.1 1.3 0.9
v 0.2 1.3 0.9
v -0.2 1.3 -0.2
v -0.1 1.3 -0.2
v 0.1 1.3 -0.2
v 0.2 1.3 -0.2
v -0.1 1.3 -0.4
v 0.1 1.3 -0.4
v -0.2 1.3 -0.5
v 0.2 1.3 -0.5
v -0.1 1.4 1.1
v 0.1 1.4 1.1
v -0.1 1.4 0.9
v 0.1 1.4 0.9
v -0.1 1.4 -0.2
v 0.1 1.4 -0.2
v -0.1 1.4 -0.4
v 0.1 1.4 -0.4
v -0.3 1.5 0.8
v 0.4 1.5 0.8
v -0.4 1.5 0.7
v -0.3 1.5 0.7
v 0.4 1.5 0.7
v 0.5 1.5 0.7
v -0.4 1.5 1.19209e-007
v -0.3 1.5 1.19209e-007
v 0.4 1.5 1.19209e-007
v 0.5 1.5 1.19209e-007
v -0.3 1.5 -0.0999999
v 0.4 1.5 -0.0999999
v -0.4 2.5 0.9
v 0.5 2.5 0.9
v -0.5 2.5 0.8
v -0.4 2.5 0.8
v 0.5 2.5 0.8
v 0.6 2.5 0.8
v -0.5 2.5 -0.0999999
v -0.4 2.5 -0.0999999
v 0.5 2.5 -0.0999999
v 0.6 2.5 -0.0999999
v -0.4 2.5 -0.2
v 0.5 2.5 -0.2
v -0.4 2.6 0.8
v 0.5 2.6 0.8
v -0.4 2.6 -0.0999999
v 0.5 2.6 -0.0999999

# faces
f 3/1/1 2/1/1 1/1/1
f 4/1/1 2/1/1 3/1/1
f 7/1/1 6/1/1 5/1/1
f 8/1/1 6/1/1 7/1/1
f 12/1/1 10/1/1 9/1/1
f 13/1/1 10/1/1 12/1/1
f 15/1/1 12/1/1 11/1/1
f 16/1/1 12/1/1 15/1/1
f 17/1/1 14/1/1 13/1/1
f 18/1/1 14/1/1 17/1/1
f 19/1/1 17/1/1 16/1/1
f 20/1/1 17/1/1 19/1/1
f 25/1/1 22/1/1 21/1/1
f 26/1/1 22/1/1 25/1/1
f 27/1/1 24/1/1 23/1/1
f 28/1/1 24/1/1 27/1/1
f 29/2/1 26/2/1 25/2/1
f 30/2/1 26/2/1 29/2/1
f 31/2/1 28/2/1 27/2/1
f 32/2/1 28/2/1 31/2/1
f 36/2/1 34/2/1 33/2/1
f 37/2/1 34/2/1 36/2/1
f 39/1/1 36/1/1 35/1/1
f 40/1/1 36/1/1 39/1/1
f 41/1/1 38/1/1 37/1/1
f 42/1/1 38/1/1 41/1/1
f 47/1/1 44/1/1 43/1/1
f 48/1/1 44/1/1 47/1/1
f 49/1/1 44/1/1 48/1/1
f 50/1/1 46/1/1 45/1/1
f 51/1/1 46/1/1 50/1/1
f 52/1/1 46/1/1 51/1/1
f 53/2/1 49/2/1 48/2/1
f 54/2/1 49/2/1 53/2/1
f 55/2/1 51/2/1 50/2/1
f 56/2/1 51/2/1 55/2/1
f 61/2/1 58/2/1 57/2/1
f 62/2/1 58/2/1 61/2/1
f 63/2/1 60/2/1 59/2/1
f 64/2/1 60/2/1 63/2/1
f 65/2/2 66/2/2 69/2/2
f 69/2/2 66/2/2 70/2/2
f 67/2/2 68/2/2 71/2/2
f 71/2/2 68/2/2 72/2/2
f 73/2/2 74/2/2 77/2/2
f 77/2/2 74/2/2 78/2/2
f 75/2/2 76/2/2 79/2/2
f 79/2/2 76/2/2 80/2/2
f 81/1/2 82/1/2 85/1/2
f 85/1/2 82/1/2 86/1/2
f 83/1/2 84/1/2 89/1/2
f 89/1/2 84/1/2 90/1/2
f 86/2/2 87/2/2 91/2/2
f 91/2/2 87/2/2 92/2/2
f 88/2/2 89/2/2 93/2/2
f 93/2/2 89/2/2 94/2/2
f 95/1/2 96/1/2 99/1/2
f 99/1/2 96/1/2 100/1/2
f 97/1/2 98/1/2 101/1/2
f 101/1/2 98/1/2 102/1/2
f 103/1/2 104/1/2 107/1/2
f 107/1/2 104/1/2 108/1/2
f 105/1/2 106/1/2 109/1/2
f 109/1/2 106/1/2 110/1/2
f 111/2/2 112/2/2 114/2/2
f 114/2/2 112/2/2 115/2/2
f 113/1/2 114/1/2 117/1/2
f 117/1/2 114/1/2 118/1/2
f 115/1/2 116/1/2 119/1/2
f 119/1/2 116/1/2 120/1/2
f 121/1/2 122/1/2 125/1/2
f 125/1/2 122/1/2 126/1/2
f 123/1/2 124/1/2 127/1/2
f 127/1/2 124/1/2 128/1/2
f 129/1/2 130/1/2 131/1/2
f 131/1/2 130/1/2 132/1/2
f 133/1/2 134/1/2 136/1/2
f 136/1/2 134/1/2 137/1/2
f 135/1/2 136/1/2 139/1/2
f 139/1/2 136/1/2 140/1/2
f 137/1/2 138/1/2 141/1/2
f 141/1/2 138/1/2 142/1/2
f 140/1/2 141/1/2 143/1/2
f 143/1/2 141/1/2 144/1/2
f 145/1/2 146/1/2 147/1/2
f 147/1/2 146/1/2 148/1/2
f 148/1/2 146/1/2 149/1/2
f 149/1/2 146/1/2 150/1/2
f 145/1/2 147/1/2 151/1/2
f 147/3/2 148/3/2 151/3/2
f 148/1/2 149/1/2 152/1/2
f 151/3/2 148/3/2 152/3/2
f 149/3/2 150/3/2 153/3/2
f 152/1/2 149/1/2 153/1/2
f 150/1/2 146/1/2 154/1/2
f 153/3/2 150/3/2 154/3/2
f 152/1/2 153/1/2 155/1/2
f 151/1/2 152/1/2 155/1/2
f 153/1/2 154/1/2 155/1/2
f 145/1/2 151/1/2 155/1/2
f 154/1/2 146/1/2 156/1/2
f 155/1/2 154/1/2 156/1/2
f 159/1/3 158/1/3 157/1/3
f 160/1/3 158/1/3 159/1/3
f 164/2/3 162/2/3 161/2/3
f 165/2/3 162/2/3 164/2/3
f 166/1/3 164/1/3 163/1/3
f 167/1/3 164/1/3 166/1/3
f 170/2/3 169/2/3 168/2/3
f 171/2/3 169/2/3 170/2/3
f 177/1/3 175/1/3 174/1/3
f 177/2/3 176/2/3 175/2/3
f 178/2/3 176/2/3 177/2/3
f 179/1/3 177/1/3 174/1/3
f 180/1/3 177/1/3 179/1/3
f 181/1/3 179/1/3 174/1/3
f 182/1/3 179/1/3 181/1/3
f 183/1/3 173/1/3 172/1/3
f 184/1/3 173/1/3 183/1/3
f 188/1/3 186/1/3 185/1/3
f 189/1/3 186/1/3 188/1/3
f 193/1/3 192/1/3 191/1/3
f 194/1/3 192/1/3 193/1/3
f 195/1/3 188/1/3 187/1/3
f 196/1/3 188/1/3 195/1/3
f 197/1/3 190/1/3 189/1/3
f 198/1/3 190/1/3 197/1/3
f 199/1/3 197/1/3 196/1/3
f 200/1/3 197/1/3 199/1/3
f 204/1/3 202/1/3 201/1/3
f 205/1/3 202/1/3 204/1/3
f 206/2/3 204/2/3 203/2/3
f 207/2/3 204/2/3 206/2/3
f 209/1/3 208/1/3 207/1/3
f 210/1/3 208/1/3 209/1/3
f 214/1/3 212/1/3 211/1/3
f 214/2/3 213/2/3 212/2/3
f 215/2/3 213/2/3 214/2/3
f 216/1/3 214/1/3 211/1/3
f 217/1/3 214/1/3 216/1/3
f 218/1/3 216/1/3 211/1/3
f 219/1/3 216/1/3 218/1/3
f 223/2/3 222/2/3 221/2/3
f 225/2/3 223/2/3 221/2/3
f 225/2/3 224/2/3 223/2/3
f 226/2/3 224/2/3 225/2/3
f 227/1/3 221/1/3 220/1/3
f 227/2/3 225/2/3 221/2/3
f 228/2/3 225/2/3 227/2/3
f 229/1/3 227/1/3 220/1/3
f 230/1/3 227/1/3 229/1/3
f 232/2/4 233/2/4 234/2/4
f 232/2/4 234/2/4 236/2/4
f 234/2/4 235/2/4 236/2/4
f 236/2/4 235/2/4 237/2/4
f 231/1/4 232/1/4 238/1/4
f 232/2/4 236/2/4 238/2/4
f 238/2/4 236/2/4 239/2/4
f 231/1/4 238/1/4 240/1/4
f 240/1/4 238/1/4 241/1/4
f 242/1/4 243/1/4 245/1/4
f 243/2/4 244/2/4 245/2/4
f 245/2/4 244/2/4 246/2/4
f 242/1/4 245/1/4 247/1/4
f 247/1/4 245/1/4 248/1/4
f 242/1/4 247/1/4 249/1/4
f 249/1/4 247/1/4 250/1/4
f 251/1/4 252/1/4 254/1/4
f 254/1/4 252/1/4 255/1/4
f 253/2/4 254/2/4 256/2/4
f 256/2/4 254/2/4 257/2/4
f 257/1/4 258/1/4 259/1/4
f 259/1/4 258/1/4 260/1/4
f 261/1/4 262/1/4 264/1/4
f 264/1/4 262/1/4 265/1/4
f 267/1/4 268/1/4 269/1/4
f 269/1/4 268/1/4 270/1/4
f 263/1/4 264/1/4 271/1/4
f 271/1/4 264/1/4 272/1/4
f 265/1/4 266/1/4 273/1/4
f 273/1/4 266/1/4 274/1/4
f 272/1/4 273/1/4 275/1/4
f 275/1/4 273/1/4 276/1/4
f 279/1/4 280/1/4 282/1/4
f 280/2/4 281/2/4 282/2/4
f 282/2/4 281/2/4 283/2/4
f 279/1/4 282/1/4 284/1/4
f 284/1/4 282/1/4 285/1/4
f 279/1/4 284/1/4 286/1/4
f 286/1/4 284/1/4 287/1/4
f 277/1/4 278/1/4 288/1/4
f 288/1/4 278/1/4 289/1/4
f 290/2/4 291/2/4 292/2/4
f 292/2/4 291/2/4 293/2/4
f 294/2/4 295/2/4 297/2/4
f 297/2/4 295/2/4 298/2/4
f 296/1/4 297/1/4 299/1/4
f 299/1/4 297/1/4 300/1/4
f 301/1/4 302/1/4 303/1/4
f 303/1/4 302/1/4 304/1/4
f 307/1/5 306/1/5 305/1/5
f 308/1/5 306/1/5 307/1/5
f 311/1/5 310/1/5 309/1/5
f 312/1/5 310/1/5 311/1/5
f 315/2/5 314/2/5 313/2/5
f 316/2/5 314/2/5 315/2/5
f 320/1/5 318/1/5 317/1/5
f 321/1/5 318/1/5 320/1/5
f 323/1/5 320/1/5 319/1/5
f 324/1/5 320/1/5 323/1/5
f 325/1/5 322/1/5 321/1/5
f 326/1/5 322/1/5 325/1/5
f 327/1/5 325/1/5 324/1/5
f 328/1/5 325/1/5 327/1/5
f 331/1/5 330/1/5 329/1/5
f 333/1/5 331/1/5 329/1/5
f 333/1/5 332/1/5 331/1/5
f 334/1/5 332/1/5 333/1/5
f 337/1/5 336/1/5 335/1/5
f 338/1/5 336/1/5 337/1/5
f 339/1/5 337/1/5 335/1/5
f 340/1/5 337/1/5 339/1/5
f 343/1/5 342/1/5 341/1/5
f 344/1/5 342/1/5 343/1/5
f 348/1/5 346/1/5 345/1/5
f 349/1/5 346/1/5 348/1/5
f 351/1/5 348/1/5 347/1/5
f 352/1/5 348/1/5 351/1/5
f 353/1/5 350/1/5 349/1/5
f 354/1/5 350/1/5 353/1/5
f 355/1/5 353/1/5 352/1/5
f 356/1/5 353/1/5 355/1/5
f 357/1/6 358/1/6 359/1/6
f 359/1/6 358/1/6 360/1/6
f 361/1/6 362/1/6 363/1/6
f 363/1/6 362/1/6 364/1/6
f 365/1/6 366/1/6 367/1/6
f 367/1/6 366/1/6 368/1/6
f 369/1/6 370/1/6 371/1/6
f 371/1/6 370/1/6 372/1/6
f 373/2/6 374/2/6 375/2/6
f 375/2/6 374/2/6 376/2/6
f 377/2/6 378/2/6 379/2/6
f 379/2/6 378/2/6 380/2/6
f 381/1/6 382/1/6 383/1/6
f 383/1/6 382/1/6 384/1/6
f 384/1/6 385/1/6 386/1/6
f 386/1/6 385/1/6 387/1/6
f 388/1/6 389/1/6 391/1/6
f 391/1/6 389/1/6 392/1/6
f 390/1/6 391/1/6 393/1/6
f 393/1/6 391/1/6 394/1/6
f 395/2/6 396/2/6 397/2/6
f 397/2/6 396/2/6 398/2/6
f 395/2/6 397/2/6 399/2/6
f 399/2/6 397/2/6 400/2/6
f 398/2/6 396/2/6 401/2/6
f 401/2/6 396/2/6 402/2/6
f 403/2/6 404/2/6 407/2/6
f 405/2/6 406/2/6 408/2/6
f 403/2/6 407/2/6 409/2/6
f 407/2/6 408/2/6 409/2/6
f 408/2/6 406/2/6 410/2/6
f 409/2/6 408/2/6 410/2/6
f 411/2/6 412/2/6 413/2/6
f 413/2/6 412/2/6 414/2/6
f 415/2/6 416/2/6 417/2/6
f 417/2/6 416/2/6 418/2/6
f 419/1/6 420/1/6 422/1/6
f 422/1/6 420/1/6 423/1/6
f 421/1/6 422/1/6 425/1/6
f 423/1/6 424/1/6 425/1/6
f 422/1/6 423/1/6 425/1/6
f 425/1/6 424/1/6 426/1/6
f 426/1/6 424/1/6 427/1/6
f 427/1/6 424/1/6 428/1/6
f 426/1/6 427/1/6 429/1/6
f 429/1/6 427/1/6 430/1/6
f 431/1/6 432/1/6 434/1/6
f 434/1/6 432/1/6 435/1/6
f 433/1/6 434/1/6 437/1/6
f 437/1/6 434/1/6 438/1/6
f 435/1/6 436/1/6 439/1/6
f 439/1/6 436/1/6 440/1/6
f 438/1/6 439/1/6 441/1/6
f 441/1/6 439/1/6 442/1/6
f 443/1/6 444/1/6 445/1/6
f 445/1/6 444/1/6 446/1/6
